<?xml version="1.0" encoding="UTF-8"?>
<svg xmlns="http://www.w3.org/2000/svg" xmlns:xlink="http://www.w3.org/1999/xlink" width="375pt" height="374.999991pt" viewBox="0 0 375 374.999991" version="1.2">
<defs>
<clipPath id="clip1">
  <path d="M 31 21 L 305 21 L 305 292 L 31 292 Z M 31 21 "/>
</clipPath>
<clipPath id="clip2">
  <path d="M 344 80.894531 L 174.1875 291.773438 L 31.074219 176.527344 L 200.882812 -34.351562 Z M 344 80.894531 "/>
</clipPath>
<clipPath id="clip3">
  <path d="M 344 80.894531 L 87.167969 399.839844 L -55.949219 284.59375 L 200.882812 -34.351562 Z M 344 80.894531 "/>
</clipPath>
<clipPath id="clip4">
  <path d="M 182.414062 201.152344 C 182.894531 201.273438 183.308594 201.375 183.640625 201.425781 C 183.402344 201.589844 182.957031 201.636719 182.367188 201.597656 C 182.082031 201.585938 181.699219 201.523438 181.390625 201.480469 C 181.074219 201.425781 180.742188 201.359375 180.378906 201.269531 C 180.191406 201.230469 180.007812 201.171875 179.8125 201.125 C 179.714844 201.09375 179.617188 201.078125 179.519531 201.042969 C 179.449219 201.035156 179.519531 201.0625 179.503906 201.0625 C 179.453125 201.085938 179.367188 201.078125 179.308594 201.074219 C 179.167969 201.074219 179.027344 201.035156 178.878906 201.011719 C 178.3125 200.863281 177.699219 200.542969 177.359375 200.828125 C 177.132812 200.148438 176.785156 199.824219 176.441406 199.578125 C 176.097656 199.332031 175.769531 199.175781 175.460938 198.769531 C 174.152344 198 174.285156 197.933594 174.914062 198.175781 C 175.542969 198.417969 176.6875 198.964844 177.214844 199.3125 C 176.695312 198.335938 177.339844 198.789062 178.183594 199.363281 C 178.601562 199.652344 179.058594 199.957031 179.46875 200.164062 C 179.566406 200.210938 179.667969 200.261719 179.765625 200.292969 C 179.820312 200.304688 179.730469 200.28125 179.765625 200.292969 C 179.910156 200.347656 180.042969 200.394531 180.175781 200.4375 C 180.445312 200.53125 180.714844 200.621094 180.957031 200.707031 C 181.203125 200.785156 181.445312 200.871094 181.667969 200.941406 C 181.9375 201.015625 182.183594 201.089844 182.414062 201.152344 Z M 161.886719 207.097656 C 162.203125 207.726562 162.550781 208.238281 163.027344 208.109375 C 162.972656 207.753906 161.488281 206.761719 162.472656 206.871094 C 162.855469 207.628906 163.605469 208.339844 164.128906 208.886719 C 164.652344 209.433594 164.960938 209.839844 164.609375 210.160156 C 164.789062 210.011719 163.605469 209.304688 163.636719 209.4375 C 163.738281 209.910156 164.070312 210.210938 164.351562 210.5 C 164.640625 210.792969 164.898438 211.078125 164.929688 211.632812 L 166.183594 213.261719 L 166.789062 214.09375 L 167.195312 214.667969 L 167.910156 215.730469 C 167.859375 215.5625 167.777344 215.371094 167.707031 215.175781 C 167.667969 215.066406 167.628906 214.957031 167.589844 214.832031 C 167.507812 214.609375 167.386719 214.371094 167.246094 214.121094 C 167.113281 213.84375 166.902344 213.546875 166.65625 213.253906 C 166.179688 212.667969 165.5625 212.046875 165.28125 211.527344 C 166.179688 211.394531 165.917969 211.136719 165.546875 210.886719 C 165.175781 210.632812 164.683594 210.359375 165.179688 210.339844 C 165.316406 210.480469 165.46875 210.617188 165.730469 210.503906 C 164.953125 209.675781 164.316406 208.632812 163.613281 207.710938 C 162.910156 206.789062 162.132812 205.957031 160.859375 205.304688 C 161.292969 205.75 161.558594 206.460938 161.886719 207.097656 Z M 181.316406 246.480469 C 181.289062 245.570312 181.132812 243.777344 180.777344 241.457031 C 180.570312 240.308594 180.359375 239.003906 180.007812 237.648438 C 179.839844 236.96875 179.660156 236.246094 179.460938 235.546875 C 179.261719 234.886719 179.0625 234.210938 178.847656 233.527344 C 177.117188 228.074219 174.359375 222.773438 172.007812 219.773438 C 173.96875 223.625 175.476562 227.390625 176.960938 231.507812 C 178.355469 235.511719 180.027344 240.480469 181.316406 246.480469 Z M 163.75 301.085938 C 160.53125 303.253906 157.210938 304.980469 154.007812 306.351562 C 147.617188 309 141.828125 310.074219 137.640625 310.332031 C 138.160156 310.574219 140.605469 310.507812 144.101562 309.835938 C 147.59375 309.167969 152.191406 307.796875 156.726562 305.601562 C 158.988281 304.511719 161.226562 303.238281 163.257812 301.871094 C 164.273438 301.226562 165.238281 300.496094 166.128906 299.8125 C 166.566406 299.464844 167.003906 299.132812 167.40625 298.804688 C 167.820312 298.464844 168.203125 298.125 168.574219 297.800781 C 169.304688 297.144531 169.964844 296.539062 170.515625 296.003906 C 171.070312 295.453125 171.523438 294.964844 171.878906 294.582031 C 172.589844 293.796875 172.898438 293.410156 172.714844 293.542969 C 170.046875 296.339844 166.960938 298.878906 163.75 301.085938 Z M 121.925781 309.0625 C 121.644531 309.066406 121.296875 309.066406 120.902344 309.058594 C 120.105469 309.023438 119.105469 308.953125 118.050781 308.816406 C 115.886719 308.570312 113.460938 308.089844 111.351562 307.640625 C 110.328125 307.40625 109.351562 307.191406 108.511719 307 C 107.664062 306.816406 106.984375 306.65625 106.476562 306.574219 C 105.460938 306.410156 105.140625 306.496094 106.054688 307.058594 C 106.339844 306.820312 110.605469 308.046875 115.304688 308.8125 C 117.59375 309.210938 119.945312 309.457031 121.449219 309.5 C 122.167969 309.535156 122.808594 309.492188 123.03125 309.40625 C 123.273438 309.320312 123.171875 309.191406 122.652344 308.992188 C 122.472656 309.019531 122.21875 309.046875 121.925781 309.0625 Z M 170.984375 200.003906 C 171.203125 199.730469 171.730469 199.828125 171.28125 198.75 C 170.398438 198.300781 170.445312 198.976562 170.984375 200.003906 Z M 166.746094 209.222656 C 167.015625 209.625 167.328125 209.988281 167.839844 210.027344 C 167.351562 209.554688 167.316406 209.152344 167.1875 208.847656 C 167.070312 208.535156 166.867188 208.324219 165.910156 208.082031 C 166.277344 208.378906 166.488281 208.8125 166.746094 209.222656 Z M 164.074219 198.546875 C 163.355469 198.824219 163.335938 199.679688 163.953125 200.359375 C 164.351562 200.15625 164.628906 199.675781 165.105469 199.375 C 165.5625 199.074219 166.160156 198.933594 166.988281 199.195312 C 165.894531 198.488281 164.765625 198.25 164.074219 198.546875 Z M 152.59375 196.128906 C 152.824219 195.863281 154.332031 196.347656 151.945312 194.890625 C 150.640625 194.601562 153.15625 196.085938 151.742188 195.507812 C 152.222656 196.34375 152.820312 197.105469 153.410156 197.859375 C 154.699219 198.339844 152.574219 196.597656 152.59375 196.128906 Z M 157.910156 201.050781 C 158.21875 201.515625 158.613281 201.972656 159.375 202.339844 C 158.792969 201.324219 159.070312 201.003906 156.894531 199.6875 C 157.382812 200.125 157.601562 200.582031 157.910156 201.050781 Z M 177.277344 237.082031 C 177.089844 236.621094 176.90625 236.210938 176.734375 235.867188 C 176.546875 235.515625 176.375 235.191406 176.199219 234.90625 C 176.429688 235.605469 176.640625 236.210938 176.863281 236.9375 C 177.070312 237.648438 177.28125 238.332031 177.472656 239 C 177.839844 240.335938 178.175781 241.601562 178.464844 242.765625 C 179.035156 245.109375 179.453125 247.078125 179.902344 248.46875 C 179.59375 245.339844 179.066406 242.519531 178.371094 240.203125 C 178.039062 239.03125 177.625 238 177.277344 237.082031 Z M 84.136719 298.070312 C 84.347656 298.117188 84.550781 298.15625 84.765625 298.175781 C 84.824219 298.160156 85.574219 298.3125 86.074219 298.421875 C 86.621094 298.535156 87.167969 298.628906 87.707031 298.769531 C 88.246094 298.894531 88.785156 299.015625 89.304688 299.140625 C 89.835938 299.273438 90.359375 299.414062 90.875 299.546875 C 94.921875 300.597656 99.984375 302.1875 104.492188 302.859375 C 100.804688 301.898438 97.945312 300.996094 95.550781 300.265625 C 93.144531 299.523438 91.296875 298.984375 89.453125 298.511719 C 88.519531 298.304688 87.605469 298.082031 86.675781 297.925781 L 85.28125 297.6875 C 84.984375 297.636719 84.988281 297.667969 84.875 297.65625 L 84.582031 297.652344 C 84.171875 297.621094 83.875 297.660156 83.539062 297.730469 C 83.210938 297.808594 82.886719 297.90625 82.558594 298.0625 C 82.890625 298.015625 83.234375 298.015625 83.589844 298.035156 Z M 76.800781 301.003906 C 76.789062 300.867188 76.785156 300.753906 76.789062 300.632812 C 76.691406 300.695312 76.53125 300.738281 76.800781 301.003906 Z M 76.835938 300.59375 C 76.820312 300.59375 76.800781 300.597656 76.78125 300.582031 C 76.785156 300.597656 76.785156 300.617188 76.777344 300.625 C 76.8125 300.621094 76.828125 300.601562 76.835938 300.59375 Z M 80.335938 307.441406 C 80.269531 307.621094 80.246094 307.804688 80.824219 307.742188 C 81.011719 307.332031 82.296875 307.109375 83.132812 307.191406 C 81.859375 307.09375 81.144531 306.941406 79.855469 306.882812 C 80.507812 307.128906 80.394531 307.253906 80.335938 307.441406 Z M 76.636719 301.054688 C 76.480469 301.226562 76 301.242188 75.632812 301.351562 C 75.265625 301.460938 75.03125 301.675781 75.425781 302.074219 C 75.503906 301.824219 75.960938 301.738281 76.3125 301.648438 C 76.664062 301.558594 76.894531 301.449219 76.636719 301.054688 Z M 77.195312 302.640625 C 78.097656 303.136719 78.683594 303.046875 79.058594 302.851562 C 79.425781 302.648438 79.664062 302.292969 79.402344 302.097656 C 78.910156 302.246094 78.3125 302.636719 77.195312 302.640625 Z M 75.792969 312.617188 C 75.71875 312.636719 75.636719 312.660156 75.558594 312.679688 C 75.652344 312.660156 75.726562 312.640625 75.792969 312.617188 Z M 82.335938 300.386719 C 81.191406 300.492188 79.765625 300.464844 79.546875 301.375 C 79.890625 301.140625 80.550781 301.191406 81.089844 301.15625 C 81.65625 301.113281 82.105469 300.996094 82.335938 300.386719 Z M 93.3125 301.710938 C 92.066406 301.363281 90.941406 301.0625 89.808594 300.789062 C 88.675781 300.5 87.53125 300.261719 86.4375 300.035156 C 85.886719 299.933594 85.347656 299.828125 84.832031 299.738281 C 84.664062 299.695312 84.671875 299.71875 84.621094 299.707031 L 84.492188 299.695312 C 84.402344 299.6875 84.324219 299.671875 84.238281 299.664062 C 83.882812 299.582031 83.707031 299.609375 83.488281 299.589844 C 83.101562 299.585938 82.867188 299.648438 82.886719 299.773438 C 83.242188 300.011719 84.128906 299.527344 84.132812 300.3125 C 83.808594 300.5625 83.589844 300.757812 83.308594 300.890625 C 83.050781 301.039062 82.789062 301.171875 82.628906 301.429688 C 82.921875 302.085938 83.085938 301.785156 83.359375 301.507812 C 83.488281 301.363281 83.628906 301.226562 83.757812 301.203125 C 83.894531 301.191406 84.082031 301.34375 84.175781 301.667969 C 84.183594 302.125 83.933594 302.046875 83.710938 301.914062 C 83.546875 301.832031 83.367188 301.746094 83.398438 302.207031 C 83.5625 302.214844 83.714844 302.242188 83.96875 302.292969 C 84.023438 302.304688 84.082031 302.304688 84.140625 302.308594 L 84.230469 302.316406 C 84.230469 302.316406 84.289062 302.320312 84.34375 302.328125 L 84.5 302.363281 L 85.800781 302.601562 C 86.671875 302.757812 87.527344 302.949219 88.378906 303.105469 C 89.234375 303.300781 90.089844 303.492188 90.921875 303.675781 C 94.367188 304.472656 98.679688 305.679688 103.460938 306.710938 C 101.84375 306.109375 99.824219 305.511719 98.128906 304.953125 C 96.433594 304.398438 94.957031 303.875 94.167969 303.367188 C 96.933594 304.160156 99.6875 304.964844 102.453125 305.761719 C 102.859375 305.464844 102.507812 305.167969 101.753906 304.871094 C 101.042969 304.578125 99.910156 304.289062 98.828125 304.007812 C 96.625 303.445312 94.503906 302.96875 94.453125 302.414062 C 95.179688 302.59375 97.335938 303.273438 99.132812 303.785156 C 100.917969 304.289062 102.195312 304.574219 100.550781 303.839844 C 98.644531 303.253906 96.082031 302.515625 93.3125 301.710938 Z M 78.113281 298.851562 C 77.371094 299.234375 76.828125 299.714844 76.785156 300.597656 C 74.875 300.382812 73.234375 301.050781 72.761719 302.414062 C 72.339844 303.570312 72.816406 304.871094 73.363281 305.949219 C 73.9375 307.046875 74.542969 308.015625 75.058594 309.148438 C 75.523438 308.574219 75.671875 308.039062 75.664062 307.488281 C 75.648438 306.949219 75.46875 306.382812 75.367188 305.773438 C 76.191406 306.761719 76.222656 307.457031 76.34375 308.425781 C 76.449219 309.351562 76.757812 310.515625 77.660156 311.398438 C 78.035156 311.589844 78.882812 310.5 79.246094 310.53125 C 79.277344 310.976562 78.96875 311.609375 78.738281 312.300781 C 78.621094 312.640625 78.539062 312.992188 78.523438 313.320312 C 78.503906 313.480469 78.5625 313.679688 78.546875 313.792969 C 78.535156 313.84375 78.523438 313.898438 78.511719 313.953125 C 78.523438 313.976562 78.476562 313.957031 78.535156 314 L 78.660156 314.117188 C 78.738281 314.195312 78.832031 314.269531 78.917969 314.355469 C 78.757812 314.382812 78.585938 314.382812 78.390625 314.351562 C 78.257812 314.324219 78.253906 314.351562 78.230469 314.378906 C 78.199219 314.398438 78.167969 314.417969 78.132812 314.441406 L 78.046875 314.492188 C 78.003906 314.507812 77.941406 314.488281 77.898438 314.484375 C 77.792969 314.476562 77.6875 314.453125 77.589844 314.421875 C 77.15625 314.320312 76.742188 314.144531 76.285156 314.132812 C 77.402344 313.941406 76.957031 313.164062 77.105469 312.648438 C 76.757812 312.308594 76.292969 312.460938 75.800781 312.609375 C 76.242188 312.449219 76.347656 312.144531 76.300781 311.8125 C 76.25 311.414062 76.011719 310.957031 75.765625 310.492188 C 74.757812 310.585938 74.34375 310.890625 74.058594 311.359375 C 73.777344 311.820312 73.613281 312.449219 72.964844 313.046875 C 72.082031 312.925781 71.316406 312.0625 70.589844 311.320312 C 69.847656 310.582031 69.054688 309.945312 67.722656 310.195312 C 67.507812 309.414062 67.046875 308.542969 66.65625 307.65625 C 66.277344 306.773438 65.976562 305.894531 66.148438 305.238281 C 66.953125 305.589844 67.070312 305.964844 67.082031 306.394531 C 67.101562 306.816406 67.039062 307.277344 67.402344 307.679688 C 68.113281 306.699219 68.5 305.734375 68.824219 304.65625 C 69.148438 303.597656 69.394531 302.363281 70.175781 301.203125 C 70.746094 300.355469 71.59375 299.671875 72.519531 299.199219 C 73.449219 298.722656 74.4375 298.398438 75.457031 298.175781 C 77.484375 297.742188 79.671875 297.496094 81.773438 297.648438 C 80.097656 298.105469 78.996094 298.414062 78.113281 298.851562 Z M 68.828125 307.101562 C 68.855469 307.417969 68.511719 307.824219 68.429688 308.289062 C 68.359375 308.746094 68.542969 309.253906 69.488281 309.546875 C 69.273438 309.171875 69.328125 308.625 69.347656 308.15625 C 69.363281 307.691406 69.332031 307.304688 68.828125 307.101562 Z M 172.082031 209.160156 C 172.351562 209.425781 172.761719 209.648438 172.738281 209.910156 C 173.496094 209.820312 172.316406 209.023438 172.210938 208.691406 C 172.429688 208.648438 172.648438 208.609375 172.515625 208.546875 C 171.726562 208.65625 171.820312 208.90625 172.082031 209.160156 Z M 147.632812 40.636719 C 150.503906 37.921875 153.871094 35.84375 156.804688 34.394531 C 159.777344 32.945312 162.234375 32.15625 163.738281 31.40625 C 161.242188 32.089844 158.207031 33.066406 155.246094 34.710938 C 152.292969 36.296875 149.527344 38.457031 147.632812 40.636719 Z M 177.644531 30.097656 C 176.289062 30.003906 174.535156 30.117188 173.160156 30.316406 C 171.789062 30.515625 170.769531 30.800781 171.078125 30.894531 C 172.003906 30.769531 173.601562 30.890625 174.941406 31.003906 C 176.285156 31.105469 177.40625 31.183594 177.390625 30.78125 C 175.800781 30.496094 177.441406 30.40625 177.644531 30.097656 Z M 11.761719 331.359375 C 8.667969 326.613281 6.566406 323.398438 4.789062 320.910156 C 3.925781 319.667969 3.097656 318.613281 2.328125 317.636719 C 1.605469 316.664062 0.898438 315.785156 0.179688 314.882812 C -0.167969 314.429688 -0.535156 313.976562 -0.871094 313.503906 C -1.207031 313.03125 -1.535156 312.550781 -1.863281 312.035156 C -2.195312 311.519531 -2.53125 310.972656 -2.867188 310.386719 C -3.214844 309.796875 -3.542969 309.160156 -3.839844 308.484375 C -5.089844 305.753906 -6.398438 302.132812 -6.90625 296.933594 C -7.441406 293.078125 -7.683594 298.609375 -7.480469 300.078125 C -7.816406 297.847656 -8.039062 295.539062 -8.136719 293.09375 C -8.226562 290.660156 -8.167969 288.09375 -7.941406 285.382812 C -7.441406 279.996094 -6.09375 273.863281 -3.078125 267.398438 C -2.238281 265.851562 -1.378906 264.285156 -0.519531 262.691406 C -0.0390625 261.925781 0.464844 261.183594 0.960938 260.414062 C 1.484375 259.6875 2.007812 258.941406 2.546875 258.191406 C 3.117188 257.484375 3.695312 256.785156 4.273438 256.066406 C 4.882812 255.390625 5.46875 254.699219 6.085938 254.027344 C 6.730469 253.382812 7.367188 252.726562 8.023438 252.085938 C 8.6875 251.472656 9.34375 250.832031 10.046875 250.230469 C 15.585938 245.4375 22.195312 241.628906 29.824219 238.910156 L 32.734375 237.9375 C 33.699219 237.609375 34.757812 237.375 35.753906 237.085938 C 37.738281 236.492188 39.890625 236.09375 41.988281 235.652344 C 43.023438 235.410156 44.144531 235.289062 45.222656 235.113281 C 46.308594 234.960938 47.371094 234.761719 48.46875 234.648438 C 50.675781 234.4375 52.839844 234.140625 55.058594 234.03125 C 63.855469 233.414062 72.613281 233.480469 80.71875 234.285156 C 84.105469 235.269531 80.527344 234.691406 80.757812 235.625 C 83.050781 235.882812 85.34375 236.046875 87.628906 236.414062 L 91.058594 236.902344 C 92.160156 237.074219 93.265625 237.265625 94.371094 237.457031 L 96.023438 237.757812 L 97.195312 238.003906 L 99.460938 238.472656 C 100.960938 238.808594 102.476562 239.144531 103.964844 239.519531 C 105.460938 239.898438 106.972656 240.277344 108.394531 240.675781 L 110.480469 241.265625 L 112.457031 241.84375 L 113.925781 242.28125 C 113.132812 241.253906 112.324219 240.230469 111.527344 239.214844 L 105.035156 230.953125 C 104.34375 230.054688 103.460938 229.066406 103.167969 228.332031 C 99.730469 222 96.304688 215.679688 92.871094 209.367188 C 86.027344 196.65625 79.195312 183.96875 72.371094 171.289062 L 67.285156 161.761719 L 66.011719 159.382812 C 66.011719 158.886719 66.054688 158.425781 66.097656 157.945312 C 66.175781 157 66.289062 156.046875 66.433594 155.058594 C 66.714844 153.105469 67.171875 151.035156 67.917969 148.601562 C 68.316406 147.394531 68.796875 146.101562 69.363281 144.742188 C 69.960938 143.386719 70.667969 141.964844 71.464844 140.550781 C 73.089844 137.722656 75.078125 134.984375 77.234375 132.632812 C 79.382812 130.238281 81.71875 128.183594 84.113281 126.367188 C 84.710938 125.914062 85.320312 125.484375 85.949219 125.074219 L 87.796875 123.839844 C 89.070312 123.109375 90.308594 122.300781 91.628906 121.667969 C 94.207031 120.277344 96.882812 119.210938 99.589844 118.246094 L 101.800781 117.527344 C 102.542969 117.296875 103.300781 117.128906 104.054688 116.929688 C 105.570312 116.53125 107.035156 116.199219 108.539062 115.875 C 111.582031 115.320312 114.648438 114.929688 117.773438 114.691406 C 120.933594 114.53125 124.148438 114.476562 127.476562 114.648438 C 130.824219 114.855469 134.242188 115.183594 137.859375 115.808594 C 141.917969 116.496094 146.191406 117.480469 150.675781 118.804688 C 151.742188 119.121094 152.820312 119.460938 153.929688 119.820312 L 153.433594 119.238281 C 153.019531 118.730469 152.511719 118.183594 152.175781 117.710938 L 149.945312 114.808594 L 148.84375 113.363281 L 148.289062 112.636719 C 148.109375 112.398438 147.96875 112.191406 147.8125 111.957031 L 145.929688 109.277344 L 144.996094 107.929688 L 144.535156 107.265625 L 144.148438 106.644531 L 142.601562 104.183594 C 141.480469 102.488281 140.769531 101.058594 139.925781 99.554688 L 139.316406 98.441406 C 139.09375 98.0625 138.972656 97.746094 138.808594 97.394531 L 137.828125 95.347656 C 137.238281 94.171875 136.816406 93.070312 136.28125 91.828125 C 135.714844 90.5625 135.292969 89.367188 134.8125 88.09375 C 134.691406 87.78125 134.570312 87.449219 134.441406 87.128906 C 134.320312 86.8125 134.234375 86.511719 134.125 86.1875 C 133.910156 85.566406 133.703125 84.933594 133.488281 84.292969 C 133.253906 83.636719 133.113281 83.042969 132.917969 82.417969 C 132.738281 81.789062 132.550781 81.171875 132.363281 80.539062 C 131.035156 75.628906 130.246094 70.949219 129.824219 67.328125 C 129.84375 66.488281 130.539062 67.109375 131.023438 67.265625 C 130.773438 66.644531 130.609375 65.921875 130.550781 65.128906 C 130.484375 64.328125 130.433594 63.480469 130.464844 62.570312 C 130.523438 60.78125 130.78125 58.765625 131.019531 56.886719 C 131.296875 56.832031 131.039062 58.988281 131.042969 61.214844 C 131.035156 63.449219 131.324219 65.828125 131.765625 66.960938 C 131.921875 66.574219 131.96875 65.992188 131.933594 65.246094 C 131.898438 64.5 131.800781 63.613281 131.75 62.578125 C 131.65625 60.511719 131.621094 57.933594 132.476562 54.84375 C 132.566406 55.910156 132.515625 57.191406 132.523438 58.472656 C 132.535156 59.773438 132.570312 61.078125 132.707031 62.277344 C 132.910156 61.273438 133.101562 60.246094 133.28125 59.191406 C 133.484375 58.128906 133.679688 57.054688 133.910156 55.917969 C 134.148438 54.773438 134.402344 53.609375 134.777344 52.371094 C 135.128906 51.144531 135.554688 49.824219 136.132812 48.46875 C 137.253906 45.765625 138.886719 42.753906 141.324219 39.863281 C 143.714844 36.96875 146.875 34.207031 150.671875 32.039062 C 152.707031 30.628906 152.933594 31.292969 153.425781 31.609375 C 157.066406 29.675781 160.066406 28.574219 162.953125 27.804688 C 165.84375 27.054688 168.582031 26.660156 171.839844 26.671875 C 170.445312 27.398438 168.34375 27.882812 165.519531 28.59375 C 162.722656 29.328125 159.117188 30.269531 154.984375 32.355469 C 150.890625 34.410156 146.363281 37.621094 142.800781 41.90625 C 141.003906 44.023438 139.546875 46.394531 138.449219 48.683594 C 137.332031 50.976562 136.695312 53.199219 136.253906 55.207031 C 136.714844 53.789062 137.273438 52.1875 138.0625 50.457031 C 138.867188 48.726562 139.867188 46.84375 141.1875 44.992188 C 143.773438 41.261719 147.40625 37.808594 151.238281 35.328125 C 153.171875 34.082031 155.136719 33.035156 157.074219 32.230469 C 159 31.417969 160.886719 30.835938 162.667969 30.421875 C 166.246094 29.601562 169.449219 29.425781 172.441406 29.550781 C 169.75 29.886719 166.785156 30.285156 163.476562 31.152344 C 161.835938 31.585938 160.109375 32.125 158.339844 32.859375 C 156.566406 33.597656 154.757812 34.488281 152.996094 35.558594 C 149.46875 37.679688 146.113281 40.5 143.523438 43.671875 C 142.230469 45.261719 141.132812 46.894531 140.253906 48.488281 C 139.382812 50.089844 138.71875 51.609375 138.214844 53.023438 C 138.511719 53.851562 138.761719 53.371094 139.117188 52.445312 C 139.449219 51.511719 139.945312 50.125 140.441406 49.199219 C 139.679688 50.917969 138.796875 53.367188 138.292969 55.902344 C 137.78125 58.445312 137.589844 61.058594 137.652344 63.394531 C 137.675781 64.582031 137.757812 65.675781 137.855469 66.730469 C 137.949219 67.773438 138.121094 68.734375 138.226562 69.628906 C 138.332031 70.523438 138.496094 71.324219 138.609375 72.007812 C 138.726562 72.691406 138.808594 73.269531 138.886719 73.691406 C 140.386719 75.957031 142.378906 79.988281 143.714844 82.539062 C 143.261719 83.449219 144.378906 86.730469 146.441406 90.945312 C 146.695312 91.476562 146.941406 92 147.242188 92.554688 C 147.546875 93.125 147.847656 93.695312 148.160156 94.269531 C 148.480469 94.855469 148.753906 95.402344 149.113281 96.019531 C 149.464844 96.628906 149.8125 97.234375 150.164062 97.84375 C 150.816406 99.023438 151.617188 100.304688 152.332031 101.519531 C 152.707031 102.132812 153 102.695312 153.414062 103.324219 C 153.796875 103.945312 154.171875 104.542969 154.527344 105.125 C 154.390625 103.75 153.097656 101.28125 151.609375 98.574219 C 151.238281 97.898438 150.851562 97.203125 150.457031 96.496094 C 150.0625 95.789062 149.714844 95.121094 149.332031 94.421875 C 148.550781 93.015625 147.890625 91.671875 147.28125 90.40625 C 147.5 90.304688 149.144531 92.761719 149.09375 93.09375 C 149.167969 92.578125 148.984375 91.746094 148.582031 90.660156 C 148.378906 90.121094 148.1875 89.546875 147.929688 88.90625 C 147.679688 88.269531 147.34375 87.5625 147.0625 86.855469 C 145.804688 83.957031 144.292969 80.488281 143.023438 76.851562 L 142.542969 75.484375 L 142.117188 74.101562 C 141.847656 73.179688 141.542969 72.265625 141.339844 71.339844 C 140.867188 69.515625 140.476562 67.722656 140.285156 65.933594 C 139.859375 62.371094 140.199219 58.820312 141.132812 56.273438 C 141.59375 54.0625 142.449219 51.703125 143.667969 49.417969 C 144.902344 47.132812 146.582031 44.953125 148.4375 43.054688 C 150.078125 41.421875 151.097656 40.734375 151.480469 40.46875 C 151.886719 40.21875 151.710938 40.433594 151.195312 40.921875 C 150.679688 41.40625 149.835938 42.207031 148.914062 43.113281 C 148.015625 44.039062 147.046875 45.109375 146.253906 46.054688 C 144.632812 48.222656 143.40625 50.4375 142.621094 52.511719 C 141.792969 54.582031 141.347656 56.507812 141.070312 58.261719 C 140.570312 61.777344 140.75 64.679688 141.320312 67.503906 C 141.097656 65.890625 140.972656 63.941406 141.164062 61.636719 C 141.265625 60.488281 141.441406 59.230469 141.738281 57.914062 C 142.042969 56.589844 142.484375 55.171875 143.089844 53.746094 C 144.289062 50.867188 146.28125 47.914062 148.628906 45.574219 C 149.792969 44.398438 151.035156 43.375 152.257812 42.476562 C 153.488281 41.601562 154.691406 40.84375 155.824219 40.230469 C 156.089844 40.074219 157.191406 39.417969 158.605469 38.722656 C 160.023438 38.027344 161.765625 37.363281 163.238281 36.964844 C 164.71875 36.535156 165.9375 36.351562 166.417969 36.320312 C 166.898438 36.300781 166.648438 36.398438 165.121094 36.847656 C 163.324219 37.421875 161.238281 38.136719 159.058594 39.148438 C 156.882812 40.167969 154.609375 41.445312 152.515625 43.105469 C 150.417969 44.742188 148.460938 46.746094 147.015625 49.003906 C 145.527344 51.242188 144.609375 53.691406 144.191406 56.046875 C 144.753906 54.304688 145.960938 52.324219 147.460938 50.34375 C 148.964844 48.363281 150.785156 46.46875 152.070312 44.640625 C 154.085938 43.296875 156.46875 41.976562 159.097656 40.890625 C 160.410156 40.363281 161.773438 39.886719 163.175781 39.496094 C 164.574219 39.109375 165.992188 38.835938 167.433594 38.644531 C 170.292969 38.257812 173.140625 38.277344 175.898438 38.539062 C 178.664062 38.808594 181.339844 39.328125 184.039062 39.929688 C 189.433594 41.179688 195.082031 42.742188 200.792969 44.929688 C 203.636719 46.007812 206.511719 47.246094 209.359375 48.671875 C 210.765625 49.351562 212.203125 50.136719 213.585938 50.890625 C 215 51.71875 216.355469 52.484375 217.71875 53.378906 C 218.21875 53.6875 219.058594 54.148438 220.042969 54.722656 C 221.027344 55.3125 222.128906 55.933594 223.105469 56.550781 C 225.058594 57.796875 226.425781 58.742188 225.125 58.253906 C 216.714844 52.601562 208.597656 48.492188 200.882812 45.453125 C 197.015625 43.925781 193.226562 42.648438 189.503906 41.578125 C 185.773438 40.535156 182.175781 39.582031 178.414062 39.023438 C 181.472656 40.105469 185.84375 41.183594 190.273438 42.476562 C 191.0625 43.503906 181.878906 40.992188 188.8125 43.308594 C 187.042969 42.957031 184.8125 42.386719 182.214844 41.867188 C 179.609375 41.359375 176.589844 40.882812 173.15625 40.921875 C 171.433594 40.933594 169.636719 41.101562 167.773438 41.46875 C 165.90625 41.835938 163.976562 42.441406 162.09375 43.273438 C 160.210938 44.105469 158.359375 45.167969 156.664062 46.445312 C 154.96875 47.738281 153.425781 49.25 152.164062 50.910156 C 153.722656 49.285156 155.855469 47.503906 158.472656 45.988281 C 161.105469 44.5 164.183594 43.246094 167.449219 42.640625 C 170.707031 42.027344 174.058594 42.035156 177.265625 42.457031 C 180.488281 42.890625 183.574219 43.710938 186.574219 44.679688 C 192.542969 46.625 198.429688 48.984375 203.476562 51.398438 C 208.523438 53.78125 212.742188 56.261719 215.25 58.03125 C 219.097656 60.027344 223.449219 62.769531 226.109375 63.980469 C 228.210938 65.90625 227.40625 65.535156 225.835938 64.550781 C 225.050781 64.074219 224.066406 63.40625 223.160156 62.832031 C 222.246094 62.234375 221.402344 61.699219 220.875 61.351562 C 222.230469 62.488281 223.1875 63.304688 223.964844 63.960938 C 224.722656 64.601562 225.285156 65.058594 225.859375 65.488281 C 226.417969 65.890625 227 66.328125 227.8125 66.921875 C 228.609375 67.515625 229.632812 68.246094 231.078125 69.410156 C 230.765625 69.546875 230.03125 69.144531 229.007812 68.445312 C 228.5 68.09375 227.925781 67.648438 227.277344 67.160156 C 226.632812 66.667969 225.945312 66.148438 225.222656 65.597656 C 222.324219 63.371094 218.824219 60.867188 216.082031 59.605469 C 218.121094 60.582031 219.023438 60.929688 219.175781 60.929688 C 219.339844 60.921875 218.75 60.476562 217.871094 59.988281 C 216.117188 58.980469 213.210938 57.667969 212.691406 58.058594 C 213.925781 58.882812 218.230469 61.757812 222.425781 64.558594 C 222.648438 65.113281 221.710938 64.542969 220.53125 63.746094 C 219.34375 62.964844 217.914062 62 217.195312 61.652344 C 221.035156 64.605469 226.660156 68.464844 232.085938 72.695312 C 234.796875 74.785156 237.421875 76.929688 239.839844 78.890625 C 242.253906 80.851562 244.460938 82.628906 246.027344 84 C 247.035156 84.625 249.183594 86.199219 250.457031 87.148438 C 251.722656 88.101562 251.984375 88.453125 249.320312 86.746094 C 246.972656 85.179688 244.347656 83.175781 241.757812 81.058594 C 239.253906 78.996094 236.644531 76.832031 234.1875 74.808594 C 229.371094 70.914062 225.21875 68.175781 224.257812 68.289062 C 228.441406 71.5625 232.878906 75.277344 237.390625 79.269531 C 241.898438 83.242188 246.714844 87.507812 252.449219 91.253906 C 255.300781 93.117188 258.359375 94.816406 261.453125 96.03125 C 261.832031 96.199219 262.226562 96.328125 262.609375 96.46875 L 263.191406 96.671875 C 263.292969 96.703125 263.390625 96.734375 263.480469 96.777344 L 263.789062 97.011719 C 263.835938 97.050781 263.894531 97.09375 263.9375 97.117188 L 264.050781 97.128906 L 264.261719 97.160156 L 264.691406 97.222656 L 265.535156 97.296875 C 266.660156 97.363281 267.78125 97.363281 268.832031 97.199219 C 270.960938 96.90625 272.851562 96.140625 274.328125 94.984375 C 275.863281 93.808594 276.96875 92.226562 277.71875 90.402344 C 277.804688 90.144531 277.898438 89.894531 277.992188 89.660156 C 278.078125 89.417969 278.136719 89.171875 278.210938 88.945312 C 278.359375 88.492188 278.496094 88.089844 278.578125 87.71875 C 278.675781 87.347656 278.773438 87.050781 278.851562 86.820312 C 278.917969 86.578125 278.980469 86.410156 279.019531 86.320312 C 279.179688 85.949219 279.34375 87.09375 278.324219 89.789062 C 277.933594 91.027344 279.160156 89.308594 278.617188 90.816406 C 277.8125 93.105469 276.339844 94.9375 274.53125 96.296875 C 273.617188 96.945312 272.597656 97.480469 271.5 97.855469 C 270.394531 98.226562 269.230469 98.453125 268.039062 98.566406 C 266.835938 98.671875 265.597656 98.625 264.371094 98.492188 L 263.90625 98.429688 C 263.828125 98.410156 263.769531 98.425781 263.667969 98.375 L 263.363281 98.195312 C 262.976562 98.019531 262.605469 97.941406 262.214844 97.8125 C 261.457031 97.574219 260.683594 97.277344 259.929688 96.980469 C 256.886719 95.761719 253.929688 94.066406 251.125 92.164062 C 248.3125 90.273438 245.675781 88.164062 243.074219 85.992188 C 240.488281 83.816406 237.972656 81.554688 235.324219 79.34375 C 230.039062 74.886719 224.328125 70.632812 218.121094 66.644531 C 219.511719 67.984375 221.796875 69.449219 224.089844 71 C 226.375 72.546875 228.675781 74.164062 230 75.667969 C 228.746094 74.871094 224.320312 71.699219 219.085938 68.277344 C 213.863281 64.847656 207.761719 61.226562 203.480469 58.710938 C 206.167969 60.644531 202.207031 58.1875 197.023438 55.535156 C 194.433594 54.195312 191.539062 52.8125 188.972656 51.867188 C 186.414062 50.914062 184.167969 50.425781 183.066406 50.441406 C 185.652344 51.089844 188.476562 52.15625 191.445312 53.488281 C 194.40625 54.828125 197.472656 56.441406 200.597656 58.101562 C 206.835938 61.433594 213.109375 65.144531 218.378906 68.097656 C 222.921875 71.585938 227.917969 75.6875 233.046875 80.296875 C 235.613281 82.613281 238.199219 85.054688 240.796875 87.582031 C 243.410156 90.089844 246.078125 92.660156 248.980469 94.980469 C 251.882812 97.300781 255.023438 99.332031 258.527344 100.628906 C 260.277344 101.277344 262.082031 101.734375 263.976562 101.96875 C 265.871094 102.203125 267.828125 102.222656 269.761719 101.929688 C 271.695312 101.652344 273.589844 101.03125 275.332031 100.066406 C 276.191406 99.578125 277.027344 99.023438 277.773438 98.363281 C 278.144531 98.023438 278.511719 97.699219 278.871094 97.351562 L 279.851562 96.210938 C 281.078125 94.632812 281.996094 92.835938 282.628906 90.949219 C 283.269531 89.054688 283.554688 87.078125 283.703125 85.097656 C 283.96875 85.324219 283.933594 86.199219 284.246094 86.234375 C 284.402344 84.882812 284.601562 82.648438 284.503906 80.265625 C 284.425781 77.871094 284.128906 75.34375 283.820312 73.351562 C 283.519531 71.371094 283.226562 69.921875 283.269531 69.675781 C 283.296875 69.429688 283.679688 70.363281 284.347656 73.277344 C 284.800781 75.355469 285.226562 77.9375 285.324219 80.957031 C 285.425781 83.960938 285.238281 87.4375 284.039062 91.027344 C 282.917969 94.621094 280.441406 98.273438 276.789062 100.574219 C 273.109375 102.867188 268.558594 103.574219 264.289062 103.089844 C 264.019531 103.074219 263.753906 103.019531 263.484375 102.988281 L 262.730469 102.878906 L 261.277344 102.582031 C 260.324219 102.339844 259.363281 102.0625 258.429688 101.71875 C 256.554688 101.035156 254.777344 100.113281 253.089844 99.082031 C 249.699219 97.019531 246.6875 94.472656 243.894531 91.972656 C 241.113281 89.46875 238.484375 87.039062 235.992188 84.921875 C 233.507812 82.796875 231.171875 80.949219 229.136719 79.421875 C 229.039062 78.96875 230.570312 80.308594 230.238281 79.621094 C 227.871094 77.558594 226.597656 76.785156 225.527344 76.203125 C 224.441406 75.625 223.535156 75.222656 221.710938 73.9375 C 220.421875 72.835938 221.136719 73.226562 222.277344 73.929688 C 223.40625 74.648438 224.945312 75.671875 225.269531 75.808594 C 223.695312 74.292969 222.191406 73.050781 220.785156 72.039062 C 219.375 71.03125 217.996094 70.152344 216.78125 69.484375 C 214.304688 68.160156 212.292969 67.492188 210.542969 66.65625 C 208.382812 65.648438 205.402344 63.949219 202.023438 62.082031 C 198.664062 60.214844 194.890625 58.144531 191.214844 56.707031 C 187.5625 55.257812 183.972656 54.546875 181.472656 55.007812 C 178.957031 55.40625 177.601562 57.035156 178.210938 59.269531 C 173.757812 57.269531 172.449219 58.378906 171.613281 60.378906 C 170.796875 62.414062 170.25 65.238281 167.953125 67.683594 C 166.484375 66.828125 166.726562 65.636719 167.335938 64.511719 C 167.960938 63.410156 168.902344 62.414062 168.113281 61.464844 C 166.96875 60.375 166.375 61.578125 166.214844 62.628906 C 166.121094 63.144531 166.101562 63.59375 166.082031 63.65625 C 166.054688 63.710938 166.007812 63.347656 165.945312 62.285156 C 165.5 64.496094 165.222656 66.792969 165.25 69.070312 C 165.28125 71.351562 165.589844 73.574219 166.105469 75.671875 C 167.144531 79.882812 168.886719 83.570312 170.996094 87.085938 C 173.113281 90.613281 175.566406 94.050781 178.574219 97.609375 C 181.582031 101.152344 185.152344 104.785156 189.359375 108.515625 C 186.726562 105.339844 182.605469 100.824219 178.78125 95.675781 C 177.792969 94.414062 176.914062 93.050781 176 91.738281 C 175.152344 90.375 174.273438 89.058594 173.550781 87.699219 C 172.085938 84.996094 171.066406 82.214844 170.988281 79.644531 C 172.019531 80.507812 172.367188 81.675781 172.761719 82.863281 C 173.125 84.058594 173.496094 85.292969 174.21875 86.308594 C 174.417969 85.363281 174.164062 83.867188 173.992188 81.894531 C 173.886719 80.910156 173.835938 79.792969 173.871094 78.609375 C 173.898438 77.417969 174.054688 76.144531 174.417969 74.882812 C 175.09375 72.328125 176.652344 69.851562 178.820312 68.144531 C 180.960938 66.414062 183.558594 65.347656 186.195312 64.96875 C 187.964844 64.621094 189.789062 64.578125 191.585938 64.738281 C 193.722656 64.902344 193.953125 65.851562 192.28125 65.496094 C 189.3125 65.207031 186.28125 65.613281 183.515625 66.730469 C 182.898438 67.789062 180.816406 68.789062 179.144531 70.613281 C 178.304688 71.507812 177.574219 72.585938 177.144531 73.792969 C 176.734375 75.019531 176.644531 76.363281 176.886719 77.722656 C 176.9375 78.296875 176.855469 78.570312 176.691406 78.703125 C 176.539062 78.828125 176.3125 78.800781 176.050781 78.746094 C 175.554688 78.625 174.933594 78.390625 174.921875 79.066406 C 175.976562 83.585938 177.828125 88.019531 180.273438 92.023438 C 180.917969 91.828125 180.308594 90.417969 179.496094 88.476562 C 179.109375 87.492188 178.644531 86.386719 178.296875 85.238281 C 177.949219 84.085938 177.683594 82.910156 177.636719 81.828125 C 179.441406 82.90625 179.398438 83.292969 179.109375 83.824219 C 178.855469 84.351562 178.40625 85.042969 179.410156 86.613281 C 181.019531 87.992188 181.152344 87.597656 180.90625 86.6875 C 180.671875 85.78125 180.164062 84.328125 180.28125 83.679688 C 181.648438 86.363281 182.03125 88.183594 182.554688 89.847656 C 183.0625 91.515625 183.667969 93.0625 185.304688 95.003906 C 185.277344 94.09375 184.832031 92.753906 184.296875 91.046875 C 183.734375 89.351562 183.085938 87.257812 182.78125 84.976562 C 182.46875 82.699219 182.589844 80.214844 183.351562 78.109375 C 183.710938 77.046875 184.230469 76.09375 184.839844 75.261719 C 185.4375 74.421875 186.136719 73.726562 186.886719 73.160156 C 184.527344 73.175781 182.164062 74.894531 181.125 77.109375 C 180.054688 79.308594 180.238281 81.652344 180.257812 81.992188 C 179.285156 79.996094 179.015625 77.820312 179.640625 75.789062 C 179.980469 74.789062 180.535156 73.832031 181.277344 72.984375 C 182.039062 72.152344 182.980469 71.429688 184.035156 70.835938 C 186.144531 69.640625 188.722656 69.007812 191.152344 68.789062 C 193.589844 68.558594 195.871094 68.792969 197.636719 68.921875 C 198.359375 70.53125 195.226562 69.828125 192.328125 70.203125 C 193.351562 71.039062 194.4375 70.984375 195.546875 70.898438 C 196.65625 70.8125 197.796875 70.730469 198.839844 71.09375 C 198 71.769531 196.609375 72.1875 194.855469 72.78125 C 193.117188 73.375 191.019531 74.109375 189.003906 75.335938 C 187.015625 76.550781 185.097656 78.316406 184.164062 80.675781 C 183.191406 83.019531 183.28125 85.78125 184.230469 88.503906 C 184.394531 87.796875 184.515625 87.007812 184.675781 86.175781 C 184.808594 85.332031 185.007812 84.449219 185.230469 83.554688 C 185.453125 82.660156 185.777344 81.773438 186.125 80.902344 C 186.523438 80.058594 186.945312 79.226562 187.476562 78.507812 C 188.515625 77.042969 189.84375 75.917969 191.382812 75.242188 C 192.941406 74.597656 194.738281 74.414062 196.816406 74.84375 C 197.976562 74.578125 197.132812 75.007812 195.648438 75.769531 C 194.898438 76.160156 194.015625 76.679688 193.117188 77.199219 C 192.214844 77.699219 191.34375 78.242188 190.527344 78.503906 C 191.730469 79.941406 192.554688 79.5 193.445312 79.125 C 192.59375 80.527344 191.332031 82.171875 190.40625 84.269531 C 189.503906 86.375 189.136719 88.894531 189.519531 91.351562 C 189.886719 93.808594 190.859375 96.191406 192.132812 98.433594 C 193.425781 100.667969 194.988281 102.816406 196.6875 104.898438 C 196.765625 104.667969 196.753906 104.3125 196.613281 103.890625 C 196.472656 103.464844 196.253906 102.949219 195.972656 102.347656 C 195.371094 101.164062 194.511719 99.664062 193.695312 97.902344 C 192.886719 96.144531 192.09375 94.121094 191.816406 92.03125 C 191.507812 89.949219 191.828125 87.8125 192.824219 86.1875 C 193.859375 84.035156 195.164062 83.203125 195.847656 82.835938 C 196.570312 82.5 196.792969 82.632812 196.601562 83.039062 C 196.414062 83.429688 195.816406 84.132812 195.078125 85.125 C 194.347656 86.109375 193.515625 87.414062 192.976562 88.875 C 194.117188 87.089844 195.953125 85.503906 198.0625 84.449219 C 200.171875 83.375 202.5 82.761719 204.808594 82.617188 C 207.125 82.476562 209.421875 82.847656 211.621094 83.515625 C 213.828125 84.1875 215.949219 85.164062 218.046875 86.308594 C 218.433594 87.523438 217.320312 87.265625 215.371094 86.675781 C 213.449219 86.105469 210.605469 85.183594 207.972656 85.613281 C 210.753906 87.140625 213.242188 87.199219 215.65625 87.882812 C 214.074219 87.839844 211.777344 87.621094 209.15625 88.140625 C 207.859375 88.417969 206.492188 88.839844 205.207031 89.53125 C 203.917969 90.207031 202.710938 91.144531 201.804688 92.347656 C 200.917969 93.542969 200.382812 94.980469 200.273438 96.449219 C 200.136719 97.910156 200.417969 99.394531 200.878906 100.792969 C 201.828125 103.609375 203.597656 106.121094 205.523438 108.496094 C 203.835938 105.957031 203.082031 103.828125 202.808594 101.445312 C 202.671875 100.261719 202.660156 99.007812 202.6875 97.660156 C 202.730469 96.3125 202.816406 94.871094 202.761719 93.320312 C 204.8125 94.535156 204.976562 93.640625 205.15625 93.085938 C 205.367188 92.539062 205.46875 92.292969 207.277344 94.777344 C 209.109375 91.867188 212.464844 90.089844 215.816406 90.175781 C 219.195312 90.203125 222.507812 91.628906 225.925781 93.273438 C 232.761719 96.554688 239.90625 101.8125 245.265625 107.433594 C 246.523438 108.632812 245.761719 108.144531 244.707031 107.390625 C 243.625 106.609375 242.226562 105.625 242.144531 105.558594 C 237 101.773438 230.457031 97.703125 223.148438 94.675781 C 221.296875 93.980469 219.320312 93.464844 217.28125 93.390625 C 215.25 93.3125 213.164062 93.792969 211.371094 94.789062 C 209.5625 95.777344 208.066406 97.386719 207.445312 99.296875 C 206.789062 101.210938 206.988281 103.222656 207.492188 104.96875 C 208.246094 104.84375 207.953125 103.550781 207.882812 101.953125 C 207.792969 100.371094 208.09375 98.546875 209.148438 97.777344 C 210.300781 98.144531 209.578125 99.117188 209.089844 100.515625 C 208.835938 101.195312 208.644531 101.976562 208.601562 102.703125 C 208.578125 103.429688 208.65625 104.085938 208.847656 104.582031 C 209.566406 103.574219 210.460938 102.210938 211.933594 101.015625 C 213.402344 99.832031 215.355469 98.933594 217.4375 98.542969 C 219.519531 98.121094 221.75 98.25 223.933594 98.871094 C 226.121094 99.496094 228.265625 100.558594 230.421875 101.875 C 231.269531 102.945312 228.765625 101.75 231.125 103.125 C 230.464844 103.324219 229.664062 103.316406 228.679688 103.285156 C 227.695312 103.253906 226.539062 103.164062 225.28125 103.300781 C 224.027344 103.445312 222.671875 103.816406 221.515625 104.65625 C 220.382812 105.484375 219.410156 106.882812 219.488281 108.890625 C 220.632812 109.109375 221.054688 108.238281 221.695312 107.367188 C 222.289062 106.476562 223.058594 105.617188 224.140625 105.542969 C 225.085938 105.277344 225.601562 105.351562 225.777344 105.441406 C 225.953125 105.554688 225.796875 105.726562 225.476562 105.949219 C 225.167969 106.179688 224.691406 106.464844 224.207031 106.777344 C 223.730469 107.078125 223.265625 107.402344 222.894531 107.539062 C 221.691406 108.375 221.027344 109.738281 221.035156 111.238281 C 221.023438 112.738281 221.589844 114.3125 222.441406 115.855469 C 224.238281 118.933594 226.871094 122.113281 230.339844 125.699219 C 231.761719 126.285156 229.304688 124.476562 229.199219 124.0625 C 230.980469 125.964844 233.964844 128.257812 236.578125 130.242188 C 239.234375 132.253906 241.507812 133.945312 242.863281 135.5625 C 240.964844 135.234375 240.128906 133.84375 238.933594 132.835938 C 239.878906 133.941406 241.179688 135.28125 242.550781 136.820312 C 243.886719 138.382812 245.234375 140.242188 246.191406 142.121094 L 246.304688 142.347656 L 246.316406 142.375 L 246.324219 142.382812 C 246.335938 142.40625 246.308594 142.304688 246.285156 142.273438 L 246.199219 142.015625 L 246.246094 142.132812 L 246.328125 142.355469 C 246.550781 142.96875 246.78125 143.570312 247 144.1875 C 247.207031 144.816406 247.421875 145.457031 247.628906 146.089844 C 247.824219 146.730469 248.011719 147.410156 248.191406 148.070312 C 248.902344 150.757812 249.449219 153.652344 249.703125 156.753906 C 249.964844 159.839844 249.886719 163.183594 249.410156 166.535156 C 248.925781 169.875 248.042969 173.269531 246.742188 176.410156 C 245.464844 179.519531 243.867188 182.449219 242.136719 184.910156 C 241.722656 185.539062 241.253906 186.160156 240.757812 186.773438 C 240.28125 187.382812 239.785156 187.980469 239.300781 188.566406 C 238.339844 189.753906 237.265625 190.800781 236.195312 191.824219 C 235.664062 192.328125 235.132812 192.832031 234.589844 193.3125 C 234.042969 193.761719 233.496094 194.207031 232.949219 194.636719 C 231.859375 195.46875 230.757812 196.355469 229.691406 197.007812 C 228.621094 197.699219 227.5625 198.355469 226.515625 198.976562 C 225.507812 199.535156 224.511719 200.039062 223.539062 200.53125 C 218.039062 202.480469 213.609375 203.097656 209.710938 203.441406 C 207.84375 203.539062 205.972656 203.648438 204.304688 203.597656 C 203.457031 203.585938 202.597656 203.574219 201.78125 203.523438 L 199.367188 203.355469 C 196.183594 203.0625 193.105469 202.605469 189.878906 201.859375 C 188.25 201.511719 186.605469 201.042969 184.855469 200.535156 C 183.988281 200.257812 183.097656 199.976562 182.179688 199.671875 C 181.542969 199.4375 180.890625 199.207031 180.207031 198.953125 C 179.542969 198.714844 179.96875 198.59375 180.15625 198.226562 C 178.402344 197.933594 176.820312 197.238281 175.125 196.308594 C 173.441406 195.390625 171.636719 194.214844 169.628906 193.15625 C 167.628906 192.109375 165.414062 191.195312 163.296875 190.828125 C 161.199219 190.445312 159.21875 190.683594 158.058594 191.601562 C 160.144531 191.695312 161.5 191.730469 162.839844 191.84375 C 164.171875 191.984375 165.5 192.242188 167.175781 193.097656 C 167.492188 193.878906 166.195312 193.175781 166.984375 194.375 C 163.921875 192.0625 160.410156 191.675781 157.785156 193.21875 C 157.144531 193.605469 156.585938 194.164062 156.269531 194.8125 C 155.941406 195.464844 155.878906 196.164062 155.925781 196.742188 C 156.03125 197.902344 156.28125 198.617188 155.851562 199.035156 C 155.558594 198.082031 155.066406 197.25 154.851562 195.894531 C 154.753906 195.226562 154.828125 194.398438 155.3125 193.621094 C 155.796875 192.847656 156.648438 192.175781 157.789062 191.726562 C 156.871094 190.816406 156.421875 190.859375 156.003906 190.988281 C 156.378906 189.65625 158.144531 189.527344 159.820312 189.644531 C 161.53125 189.761719 163.148438 190.148438 164.167969 189.785156 C 161.527344 187.875 159.097656 187.226562 157.019531 187.375 C 154.9375 187.546875 153.121094 188.375 151.394531 189.550781 C 150.816406 189.941406 150.34375 190.429688 150.015625 190.976562 C 149.695312 191.527344 149.554688 192.144531 149.550781 192.730469 C 149.566406 193.925781 150.078125 194.992188 150.695312 196 C 151.976562 197.996094 153.472656 200.136719 155.261719 202.601562 C 155.574219 202.15625 155.113281 201.300781 154.199219 200.160156 C 155.949219 201.882812 157.105469 203.902344 158.648438 206.214844 C 160.148438 208.480469 162.023438 211.019531 164.089844 212.371094 C 164.027344 213.101562 164.5 214.132812 165.183594 215.335938 C 165.238281 215.441406 165.433594 215.753906 165.589844 215.988281 C 165.816406 216.34375 166.035156 216.707031 166.273438 217.070312 C 166.933594 218.082031 167.609375 219.171875 168.289062 220.296875 C 169.664062 222.566406 171.0625 225.035156 172.363281 227.683594 C 173.671875 230.324219 174.878906 233.128906 175.851562 235.996094 C 176.097656 236.675781 176.34375 237.46875 176.5625 238.21875 C 176.792969 238.976562 177.015625 239.71875 177.191406 240.46875 C 177.367188 241.214844 177.546875 241.9375 177.71875 242.648438 C 177.855469 243.367188 177.996094 244.085938 178.121094 244.777344 C 179.121094 250.328125 178.988281 255.105469 178.660156 257.734375 C 178.769531 258.273438 178.765625 259.046875 178.761719 259.867188 C 178.753906 260.703125 178.722656 261.59375 178.652344 262.453125 C 178.59375 263.296875 178.546875 264.066406 178.589844 264.613281 C 178.605469 265.171875 178.703125 265.515625 178.941406 265.488281 C 177.957031 269.53125 176.277344 274.492188 173.28125 279.5625 C 172.898438 280.191406 172.527344 280.824219 172.125 281.464844 C 171.699219 282.085938 171.257812 282.710938 170.808594 283.34375 C 169.9375 284.601562 168.894531 285.800781 167.871094 286.996094 C 165.769531 289.335938 163.417969 291.5 160.96875 293.292969 C 158.523438 295.148438 156.011719 296.609375 153.539062 297.886719 C 151.09375 299.089844 148.671875 300.109375 146.425781 300.851562 C 141.914062 302.398438 137.976562 303.179688 134.890625 303.730469 C 137.132812 303.648438 140.25 303.347656 144.0625 302.453125 C 147.859375 301.558594 152.410156 300.039062 157.199219 297.351562 C 161.992188 294.644531 166.964844 290.609375 170.882812 285.550781 C 174.804688 280.527344 177.394531 274.878906 178.886719 269.707031 C 177.863281 274.527344 175.6875 280.242188 171.65625 285.828125 C 169.589844 288.585938 167.1875 291.316406 164.40625 293.632812 C 161.648438 295.957031 158.609375 298.050781 155.476562 299.664062 C 152.34375 301.296875 149.101562 302.601562 145.878906 303.554688 C 142.664062 304.496094 139.457031 305.164062 136.289062 305.585938 C 133.121094 306.003906 129.996094 306.164062 126.902344 306.144531 C 125.351562 306.140625 123.808594 306.066406 122.265625 305.976562 C 120.832031 305.863281 119.40625 305.742188 118.039062 305.589844 C 118.320312 305.394531 119.257812 305.480469 120.488281 305.597656 C 121.105469 305.660156 121.785156 305.726562 122.453125 305.800781 C 123.183594 305.859375 123.90625 305.910156 124.546875 305.941406 L 123.082031 305.808594 C 122.589844 305.765625 122.101562 305.71875 121.664062 305.660156 C 120.773438 305.550781 119.839844 305.4375 118.988281 305.296875 C 117.230469 305.03125 115.515625 304.707031 113.875 304.351562 C 110.589844 303.648438 107.550781 302.804688 104.769531 301.976562 C 99.1875 300.300781 94.667969 298.714844 90.9375 297.730469 C 89.046875 297.203125 87.125 296.792969 85.238281 296.410156 C 85.03125 296.382812 84.820312 296.351562 84.609375 296.304688 C 84.398438 296.261719 84.195312 296.222656 84.027344 296.195312 C 83.667969 296.140625 83.3125 296.101562 82.945312 296.074219 C 81.523438 295.953125 80.167969 296.03125 79.035156 296.296875 C 79.164062 296.757812 79.363281 296.53125 79.589844 296.402344 C 79.816406 296.273438 80.050781 296.214844 80.144531 297.003906 C 79.371094 296.847656 78.882812 296.96875 78.441406 297.113281 C 78 297.253906 77.613281 297.425781 76.933594 297.40625 C 76.589844 296.769531 77.757812 297.136719 77.6875 296.660156 C 75.683594 296.679688 73.660156 296.605469 71.5625 296.875 C 70.527344 297.023438 69.464844 297.242188 68.484375 297.664062 C 67.496094 298.066406 66.625 298.683594 65.964844 299.445312 C 65.277344 300.277344 64.878906 301.277344 64.773438 302.296875 C 64.648438 303.316406 64.777344 304.355469 65.0625 305.390625 C 65.660156 307.445312 66.84375 309.546875 68.515625 311.503906 C 68.21875 312.257812 68.644531 313.253906 69.21875 314.261719 C 69.792969 315.265625 70.503906 316.273438 70.796875 317.242188 C 69.441406 316.433594 70.015625 317.84375 69.492188 316.082031 C 68.566406 316.191406 67.929688 316.628906 67.476562 317.292969 C 67.023438 317.953125 66.773438 318.839844 66.503906 319.789062 C 66.234375 320.722656 65.964844 321.71875 65.3125 322.488281 C 64.65625 323.246094 63.644531 323.789062 61.710938 323.660156 C 62.371094 324.75 62.285156 325.226562 62.082031 325.671875 C 61.878906 326.113281 61.53125 326.546875 61.8125 327.644531 C 60.710938 326.773438 59.898438 326.355469 59.203125 326.199219 C 58.503906 326.039062 57.914062 326.15625 57.359375 326.285156 C 56.242188 326.550781 55.171875 327.011719 53.195312 325.53125 C 53.082031 325.980469 54.070312 326.917969 54.882812 327.757812 C 55.695312 328.601562 56.386719 329.34375 55.632812 329.53125 C 54.738281 328.964844 54.246094 329.207031 53.660156 329.605469 C 53.074219 330.003906 52.394531 330.578125 51.082031 330.46875 C 51.089844 330.925781 51.457031 331.53125 52.066406 332.257812 C 52.371094 332.613281 52.734375 333.011719 53.140625 333.417969 C 53.550781 333.8125 54.019531 334.21875 54.503906 334.65625 C 53.246094 335.214844 49.539062 331.964844 47.203125 330.503906 C 49.289062 333.085938 49.007812 333.761719 48.628906 334.484375 C 48.445312 334.847656 48.242188 335.214844 48.378906 335.851562 C 48.449219 336.171875 48.585938 336.5625 48.863281 337.050781 C 49.144531 337.527344 49.570312 338.101562 50.164062 338.8125 C 47.902344 338.6875 46.640625 339.210938 45.847656 340.019531 C 45.058594 340.828125 44.734375 341.925781 44.167969 342.804688 C 43.585938 343.660156 42.765625 344.289062 40.808594 344.003906 C 39.851562 343.839844 38.609375 343.429688 36.988281 342.683594 C 36.15625 342.328125 35.292969 341.816406 34.300781 341.238281 C 33.316406 340.644531 32.191406 339.957031 31.015625 339.101562 C 30.605469 339.628906 34.671875 343.167969 35.058594 344.117188 C 27.726562 337.839844 22.574219 333.410156 18.683594 331.195312 C 14.96875 328.824219 12.394531 328.855469 11.761719 331.359375 Z M 186.511719 99.316406 C 187.664062 99.792969 189.308594 101.382812 188.878906 100.601562 C 188.179688 100.101562 187.527344 99.40625 186.902344 98.652344 C 186.28125 97.902344 185.683594 97.082031 185.183594 96.273438 C 184.132812 94.683594 183.296875 93.214844 182.410156 92.734375 C 181.742188 93.253906 184.957031 97.117188 186.511719 99.316406 Z M 188.125 101.347656 C 187.183594 100.449219 185.628906 98.558594 184.332031 96.925781 C 183.660156 96.121094 183.054688 95.382812 182.5625 94.894531 C 182.066406 94.414062 181.671875 94.191406 181.480469 94.425781 C 182.757812 95.484375 183.730469 96.765625 184.703125 98.066406 C 185.710938 99.324219 186.769531 100.539062 188.125 101.347656 Z M 157.546875 63.253906 C 157.859375 61.5 158.558594 59.683594 159.640625 58.050781 C 160.726562 56.433594 162.167969 55.03125 163.6875 53.933594 C 165.210938 52.832031 166.804688 52.03125 168.222656 51.445312 C 169.648438 50.851562 170.90625 50.507812 171.796875 50.214844 C 171.75 50.023438 172.027344 49.828125 171.984375 49.730469 C 171.9375 49.628906 171.574219 49.617188 170.273438 49.984375 C 167.886719 50.535156 166.082031 51.382812 164.589844 52.3125 C 163.105469 53.265625 161.925781 54.304688 160.894531 55.527344 C 159.871094 56.757812 158.988281 58.148438 158.269531 59.886719 C 157.578125 61.617188 157 63.703125 156.953125 66.214844 C 157.285156 71.398438 157.078125 65.519531 157.546875 63.253906 Z M 208.980469 159.441406 L 208.941406 159.390625 C 208.960938 159.40625 208.988281 159.445312 208.980469 159.441406 Z M 182.070312 195.382812 L 181.691406 195.296875 L 181.59375 195.28125 C 181.570312 195.273438 181.578125 195.28125 181.578125 195.28125 L 181.5625 195.300781 C 181.265625 195.34375 180.960938 195.375 180.683594 195.449219 C 180.886719 195.566406 181.085938 195.664062 181.308594 195.734375 L 181.386719 195.75 C 181.40625 195.75 181.398438 195.757812 181.40625 195.75 L 181.957031 195.929688 C 182.339844 196.054688 182.726562 196.175781 183.097656 196.289062 C 184.804688 196.777344 186.5625 197.179688 188.03125 197.398438 C 189.507812 197.652344 190.78125 197.730469 191.652344 197.765625 C 192.519531 197.808594 193.015625 197.757812 192.972656 197.675781 C 189.910156 197.152344 187.109375 196.597656 184.578125 195.957031 C 183.976562 195.816406 183.402344 195.679688 182.839844 195.550781 C 182.574219 195.511719 182.320312 195.445312 182.070312 195.382812 Z M 176.25 192.328125 C 176.78125 192.496094 177.558594 192.996094 178.253906 193.367188 C 178.949219 193.742188 179.578125 193.984375 179.917969 193.714844 C 179.328125 193.578125 178.5625 193.101562 177.832031 192.71875 C 177.117188 192.328125 176.472656 192.027344 176.25 192.328125 Z M 166.738281 188.371094 C 167.480469 188.488281 168.777344 189.253906 169.78125 189.78125 C 170.804688 190.308594 171.59375 190.617188 171.640625 189.925781 C 171.28125 189.929688 169.4375 188.992188 167.957031 188.402344 C 166.46875 187.796875 165.398438 187.527344 166.738281 188.371094 Z M 169.699219 192.28125 C 170.574219 192.269531 171.621094 192.769531 172.566406 193.160156 C 173.53125 193.5625 174.417969 193.871094 175.398438 193.710938 C 174.136719 193.210938 172.824219 192.585938 171.742188 192.230469 C 170.675781 191.855469 169.847656 191.765625 169.699219 192.28125 Z M 134.707031 257.367188 C 134.699219 257.359375 134.699219 257.359375 134.6875 257.351562 C 134.765625 257.429688 134.851562 257.5 134.753906 257.40625 L 134.746094 257.398438 Z M 258.714844 69.671875 C 257.414062 68.375 253.542969 65.617188 249.59375 62.917969 C 245.632812 60.210938 241.78125 57.640625 239.628906 55.605469 C 239.65625 56.421875 243.394531 59.167969 247.902344 62.332031 C 252.398438 65.472656 257.535156 69.035156 258.714844 69.671875 Z M 280.863281 70.367188 C 281.160156 70.730469 281.742188 72.207031 282.144531 73.636719 C 281.851562 71.628906 281.429688 69.777344 281.039062 68.003906 C 280.625 66.238281 280.207031 64.578125 279.726562 62.976562 C 278.769531 59.765625 277.652344 56.75 276.09375 53.613281 C 274.792969 50.402344 274.054688 48.847656 273.84375 48.378906 C 273.621094 47.921875 273.878906 48.546875 274.371094 49.785156 C 275.394531 52.257812 277.222656 57.230469 278.140625 60.644531 C 278.820312 63.058594 279.222656 65.996094 279.628906 68.5 C 280.039062 71.023438 280.417969 73.039062 281.175781 73.820312 C 280.640625 70.761719 280.566406 70 280.863281 70.367188 Z M 252.71875 88.875 C 253.207031 89.5 256.515625 91.761719 259.519531 93.167969 C 261 93.894531 262.371094 94.410156 263.183594 94.65625 C 263.386719 94.710938 263.546875 94.765625 263.679688 94.792969 C 263.800781 94.796875 263.910156 94.914062 263.933594 94.902344 C 264.015625 94.953125 263.859375 94.625 263.488281 94.453125 C 261.15625 93.816406 258.953125 92.496094 257.074219 91.246094 C 255.175781 90.011719 253.640625 88.867188 252.71875 88.875 Z M 180.558594 62.839844 C 180.015625 63.085938 179.546875 63.441406 179.300781 63.800781 C 179.078125 64.195312 179.089844 64.644531 179.542969 65.179688 C 181.171875 64.316406 182.933594 63.710938 184.757812 63.359375 C 183.066406 62.078125 184.183594 61.15625 182.484375 61.046875 C 182.847656 61.945312 181.609375 62.269531 180.558594 62.839844 Z M 3.667969 325.839844 C 0.554688 320.859375 -2.117188 315.921875 -2.355469 316.621094 C -1.914062 317.347656 -1.480469 318.410156 -0.839844 319.738281 C -0.207031 321.054688 0.386719 322.652344 1.300781 324.414062 C 1.738281 325.296875 2.207031 326.21875 2.691406 327.199219 C 3.226562 328.160156 3.808594 329.15625 4.40625 330.167969 C 4.710938 330.675781 5.027344 331.195312 5.339844 331.710938 C 5.671875 332.226562 6.035156 332.738281 6.394531 333.261719 C 7.125 334.300781 7.859375 335.359375 8.675781 336.390625 C 9.945312 335.949219 6.683594 330.835938 3.667969 325.839844 Z M 253.777344 151.945312 C 253.816406 152.222656 253.871094 152.578125 253.933594 153.019531 C 253.996094 153.488281 254.046875 154.042969 254.125 154.695312 C 254.1875 155.355469 254.273438 156.09375 254.304688 157.003906 C 254.347656 157.910156 254.410156 158.878906 254.375 160.0625 C 254.371094 162.363281 254.175781 165.285156 253.519531 168.800781 C 253.058594 168.835938 253.078125 167.34375 253.035156 165.8125 C 252.726562 167.992188 252.375 170.476562 251.707031 173.15625 C 251.539062 173.832031 251.363281 174.511719 251.167969 175.199219 C 250.957031 175.882812 250.738281 176.578125 250.488281 177.277344 C 250.019531 178.691406 249.417969 180.074219 248.777344 181.484375 C 248.117188 182.867188 247.359375 184.230469 246.535156 185.542969 C 245.691406 186.824219 244.835938 188.078125 243.753906 189.308594 C 242.6875 190.515625 241.59375 191.71875 240.363281 192.765625 C 239.269531 193.675781 238.132812 194.53125 236.957031 195.296875 C 238.042969 194.507812 239.484375 193.179688 240.628906 191.972656 C 241.910156 190.515625 242.816406 189.253906 242.695312 189.386719 C 241.898438 190.242188 241.070312 191.113281 240.171875 191.960938 C 239.253906 192.792969 238.292969 193.621094 237.285156 194.425781 C 236.296875 195.265625 235.246094 195.972656 234.167969 196.691406 C 233.097656 197.386719 231.992188 198.144531 230.90625 198.699219 C 229.8125 199.285156 228.703125 199.851562 227.605469 200.382812 C 226.515625 200.890625 225.464844 201.289062 224.40625 201.695312 C 223.875 201.890625 223.347656 202.085938 222.824219 202.269531 C 222.324219 202.429688 221.820312 202.570312 221.347656 202.714844 C 220.371094 203.003906 219.40625 203.253906 218.492188 203.480469 C 216.738281 203.84375 215.085938 204.144531 213.699219 204.300781 C 212.351562 204.429688 211.179688 204.496094 210.257812 204.503906 C 208.480469 204.472656 207.730469 204.226562 208.339844 203.8125 C 207.710938 203.960938 206.992188 204.097656 206.21875 204.207031 C 205.457031 204.308594 204.667969 204.359375 203.820312 204.40625 C 202.101562 204.515625 200.378906 204.433594 198.628906 204.332031 C 195.226562 204.0625 192.035156 203.488281 190.140625 203.15625 C 193.0625 203.988281 189.351562 203.347656 188.316406 203.414062 C 193.980469 204.679688 200.085938 205.472656 206.402344 205.332031 C 209.585938 205.238281 212.710938 204.984375 215.792969 204.417969 C 216.5625 204.277344 217.3125 204.132812 218.03125 203.996094 C 218.75 203.859375 219.527344 203.644531 220.230469 203.464844 C 221.671875 203.085938 222.96875 202.746094 224.28125 202.277344 C 224.351562 202.476562 223.25 203.019531 222.175781 203.382812 C 221.085938 203.792969 219.910156 204.171875 219.660156 204.421875 C 220.308594 204.257812 220.984375 204.074219 221.71875 203.855469 C 222.453125 203.636719 223.199219 203.429688 224.058594 203.09375 C 224.902344 202.777344 225.777344 202.441406 226.6875 202.070312 C 227.578125 201.714844 228.542969 201.246094 229.539062 200.726562 C 230.527344 200.214844 231.527344 199.683594 232.539062 199.082031 C 233.5625 198.429688 234.601562 197.742188 235.640625 197.007812 C 236.675781 196.300781 237.695312 195.457031 238.703125 194.574219 C 239.703125 193.683594 240.726562 192.8125 241.65625 191.816406 C 242.582031 190.839844 243.488281 189.808594 244.367188 188.757812 C 245.242188 187.707031 245.972656 186.648438 246.742188 185.554688 C 247.496094 184.449219 248.195312 183.269531 248.863281 182.113281 C 249.507812 180.90625 250.128906 179.695312 250.667969 178.464844 C 252.863281 173.515625 253.964844 168.445312 254.332031 164.320312 C 254.722656 160.171875 254.484375 156.914062 254.230469 154.71875 C 254.101562 153.605469 253.980469 152.730469 253.867188 152.15625 C 253.769531 151.566406 253.691406 151.222656 253.675781 151.164062 C 253.667969 151.15625 253.699219 151.382812 253.777344 151.945312 Z M 275.292969 60.453125 C 273.894531 57.613281 272.703125 54.117188 271.460938 50.988281 C 270.226562 47.847656 268.921875 45.085938 267.609375 43.75 C 269.363281 46.761719 271.101562 51.105469 272.394531 54.617188 C 273.699219 58.128906 274.667969 60.804688 275.292969 60.453125 Z M 219.425781 55.703125 C 219.785156 55.835938 219.671875 55.683594 218.914062 55.199219 C 218.535156 54.953125 217.988281 54.609375 217.285156 54.210938 C 216.578125 53.8125 215.691406 53.332031 214.605469 52.769531 C 212.574219 51.835938 209.761719 50.269531 207.273438 49.121094 C 206.007812 48.507812 204.847656 48.039062 203.867188 47.652344 C 202.890625 47.304688 202.128906 47.109375 201.671875 47.117188 C 202.628906 47.28125 203.632812 48.042969 204.40625 48.648438 C 205.167969 49.261719 205.691406 49.714844 205.664062 49.164062 C 205.085938 48.882812 204.53125 48.609375 204.449219 48.261719 C 207.328125 50.613281 209.429688 50.703125 212.949219 52.277344 C 216.074219 54.03125 218.699219 55.445312 219.425781 55.703125 Z M 247.214844 80.769531 C 243.96875 78.453125 241.117188 76.4375 239.847656 75.925781 C 241.285156 77.304688 244.289062 79.753906 247.566406 82.050781 C 250.828125 84.351562 254.394531 86.445312 256.050781 87.03125 C 254.050781 85.636719 250.441406 83.089844 247.214844 80.769531 Z M 229.300781 105.683594 C 230.015625 105.542969 231.410156 106.109375 232.515625 106.589844 C 233.632812 107.074219 234.484375 107.445312 234.390625 106.886719 C 233.722656 106.691406 232.429688 105.945312 231.257812 105.488281 C 230.113281 105.015625 229.105469 104.859375 229.300781 105.683594 Z M 270.089844 21.621094 C 272.089844 24.617188 273.5 27.648438 274.828125 30.304688 C 276.132812 32.988281 277.398438 35.296875 279.113281 37.007812 C 277.628906 33.851562 276.457031 31.507812 275.152344 29.167969 C 273.839844 26.863281 272.367188 24.558594 270.089844 21.621094 Z M 237.242188 106.757812 C 238.710938 107.660156 239.679688 108.097656 239.886719 107.644531 C 238.507812 106.75 236.519531 105.304688 237.242188 106.757812 Z M 245.363281 138.789062 C 245.945312 139.648438 246.496094 140.449219 247.445312 140.3125 C 246.96875 139.554688 246.464844 138.730469 245.816406 138.070312 C 245.167969 137.40625 244.363281 136.882812 243.261719 136.570312 C 244.203125 137.0625 244.777344 137.933594 245.363281 138.789062 Z M 241.355469 188.636719 C 241.894531 188.027344 242.429688 187.402344 242.957031 186.765625 C 243.445312 186.136719 243.921875 185.492188 244.382812 184.839844 C 248.148438 179.625 250.820312 172.832031 251.621094 167.085938 C 252.085938 164.175781 252.140625 161.578125 252.050781 159.28125 C 251.988281 158.15625 251.878906 157.121094 251.75 156.160156 C 251.605469 155.238281 251.4375 154.386719 251.261719 153.621094 C 250.511719 150.636719 249.582031 149.125 248.863281 149.261719 C 249.679688 151.664062 250.726562 155.847656 250.71875 161.472656 C 250.6875 164.292969 250.390625 167.417969 249.617188 170.636719 C 248.851562 173.847656 247.675781 177.082031 246.1875 179.972656 C 245.828125 180.710938 245.425781 181.382812 245.035156 182.082031 C 244.644531 182.761719 244.242188 183.449219 243.824219 184.046875 C 243.003906 185.296875 242.164062 186.472656 241.234375 187.589844 C 240.320312 188.6875 239.445312 189.757812 238.542969 190.664062 C 237.632812 191.5625 236.757812 192.398438 235.949219 193.132812 C 235.132812 193.894531 234.386719 194.472656 233.710938 195.003906 C 233.042969 195.523438 232.464844 195.972656 232.011719 196.324219 C 231.089844 197.0625 230.652344 197.394531 230.835938 197.414062 C 233.160156 195.957031 235.628906 194.242188 237.96875 192.070312 C 239.175781 191.035156 240.273438 189.863281 241.355469 188.636719 Z M 197.027344 60.53125 C 196.113281 60.121094 195.191406 59.722656 194.265625 59.367188 C 191.28125 58.269531 189.769531 58.171875 189.335938 58.289062 C 188.886719 58.441406 189.476562 58.808594 190.476562 59.207031 C 191.492188 59.605469 192.902344 60.074219 194.167969 60.390625 C 195.441406 60.703125 196.554688 60.867188 197.027344 60.53125 Z M 303.859375 81.914062 C 303.859375 82.492188 303.867188 83.179688 303.863281 83.972656 C 303.878906 84.746094 303.835938 85.707031 303.796875 86.777344 C 303.769531 87.832031 303.648438 89.101562 303.492188 90.515625 C 304.074219 88.324219 304.328125 85.886719 304.339844 83.921875 C 304.375 81.910156 304.175781 80.363281 304.035156 79.628906 C 303.886719 78.90625 303.789062 79.027344 303.8125 80.523438 C 303.828125 80.894531 303.84375 81.355469 303.859375 81.914062 Z M 199.980469 62.847656 C 201.585938 63.300781 204.101562 64.578125 206.363281 65.746094 C 208.640625 66.894531 210.671875 67.941406 211.511719 67.917969 C 209.449219 66.894531 206.414062 65.179688 203.929688 63.960938 C 201.457031 62.730469 199.578125 61.996094 199.980469 62.847656 Z M 211.808594 76.371094 C 212.445312 76.414062 214.53125 77.394531 216.203125 78.210938 C 217.871094 79.011719 219.164062 79.632812 218.308594 78.742188 C 217.152344 77.980469 215.796875 77.421875 214.898438 76.355469 C 215.984375 76.996094 217.628906 77.851562 215.925781 76.527344 C 214.03125 75.964844 212.308594 75.636719 211.808594 76.371094 Z M 212.683594 73.855469 C 213.566406 73.863281 215.945312 75.347656 218.109375 76.714844 C 220.296875 78.085938 222.292969 79.335938 222.867188 78.929688 C 220.964844 77.429688 217.898438 75.316406 215.53125 74.046875 C 213.15625 72.773438 211.566406 72.332031 212.683594 73.855469 Z M 212.683594 73.855469 "/>
</clipPath>
<linearGradient id="linear0" gradientUnits="userSpaceOnUse" x1="-17.75054" y1="75.837997" x2="297.420709" y2="75.837997" gradientTransform="matrix(-0.759831,0.943584,-0.942798,-0.759197,343.880856,81.042758)">
<stop offset="0" style="stop-color:rgb(27.099609%,15.299988%,62.69989%);stop-opacity:1;"/>
<stop offset="0.0625" style="stop-color:rgb(27.189636%,15.386963%,62.750244%);stop-opacity:1;"/>
<stop offset="0.0703125" style="stop-color:rgb(27.394104%,15.586853%,62.864685%);stop-opacity:1;"/>
<stop offset="0.078125" style="stop-color:rgb(27.62146%,15.809631%,62.994385%);stop-opacity:1;"/>
<stop offset="0.0859375" style="stop-color:rgb(27.850342%,16.033936%,63.124084%);stop-opacity:1;"/>
<stop offset="0.09375" style="stop-color:rgb(28.077698%,16.256714%,63.252258%);stop-opacity:1;"/>
<stop offset="0.101562" style="stop-color:rgb(28.30658%,16.479492%,63.381958%);stop-opacity:1;"/>
<stop offset="0.109375" style="stop-color:rgb(28.533936%,16.702271%,63.510132%);stop-opacity:1;"/>
<stop offset="0.117187" style="stop-color:rgb(28.762817%,16.926575%,63.639832%);stop-opacity:1;"/>
<stop offset="0.125" style="stop-color:rgb(28.991699%,17.149353%,63.769531%);stop-opacity:1;"/>
<stop offset="0.132812" style="stop-color:rgb(29.219055%,17.372131%,63.897705%);stop-opacity:1;"/>
<stop offset="0.140625" style="stop-color:rgb(29.447937%,17.59491%,64.027405%);stop-opacity:1;"/>
<stop offset="0.148437" style="stop-color:rgb(29.675293%,17.817688%,64.155579%);stop-opacity:1;"/>
<stop offset="0.15625" style="stop-color:rgb(29.904175%,18.041992%,64.285278%);stop-opacity:1;"/>
<stop offset="0.164062" style="stop-color:rgb(30.131531%,18.264771%,64.413452%);stop-opacity:1;"/>
<stop offset="0.171875" style="stop-color:rgb(30.360413%,18.487549%,64.543152%);stop-opacity:1;"/>
<stop offset="0.179687" style="stop-color:rgb(30.589294%,18.710327%,64.672852%);stop-opacity:1;"/>
<stop offset="0.1875" style="stop-color:rgb(30.81665%,18.934631%,64.801025%);stop-opacity:1;"/>
<stop offset="0.195312" style="stop-color:rgb(31.045532%,19.15741%,64.930725%);stop-opacity:1;"/>
<stop offset="0.203125" style="stop-color:rgb(31.272888%,19.380188%,65.058899%);stop-opacity:1;"/>
<stop offset="0.210937" style="stop-color:rgb(31.50177%,19.602966%,65.188599%);stop-opacity:1;"/>
<stop offset="0.21875" style="stop-color:rgb(31.729126%,19.825745%,65.318298%);stop-opacity:1;"/>
<stop offset="0.226562" style="stop-color:rgb(31.958008%,20.050049%,65.446472%);stop-opacity:1;"/>
<stop offset="0.234375" style="stop-color:rgb(32.18689%,20.272827%,65.576172%);stop-opacity:1;"/>
<stop offset="0.242187" style="stop-color:rgb(32.414246%,20.495605%,65.704346%);stop-opacity:1;"/>
<stop offset="0.25" style="stop-color:rgb(32.643127%,20.718384%,65.834045%);stop-opacity:1;"/>
<stop offset="0.257812" style="stop-color:rgb(32.870483%,20.942688%,65.962219%);stop-opacity:1;"/>
<stop offset="0.265625" style="stop-color:rgb(33.099365%,21.165466%,66.091919%);stop-opacity:1;"/>
<stop offset="0.273437" style="stop-color:rgb(33.328247%,21.388245%,66.221619%);stop-opacity:1;"/>
<stop offset="0.28125" style="stop-color:rgb(33.555603%,21.611023%,66.349792%);stop-opacity:1;"/>
<stop offset="0.289062" style="stop-color:rgb(33.784485%,21.835327%,66.479492%);stop-opacity:1;"/>
<stop offset="0.296875" style="stop-color:rgb(34.011841%,22.058105%,66.607666%);stop-opacity:1;"/>
<stop offset="0.304688" style="stop-color:rgb(34.240723%,22.280884%,66.737366%);stop-opacity:1;"/>
<stop offset="0.3125" style="stop-color:rgb(34.468079%,22.503662%,66.867065%);stop-opacity:1;"/>
<stop offset="0.320312" style="stop-color:rgb(34.69696%,22.72644%,66.995239%);stop-opacity:1;"/>
<stop offset="0.328125" style="stop-color:rgb(34.925842%,22.950745%,67.124939%);stop-opacity:1;"/>
<stop offset="0.335937" style="stop-color:rgb(35.153198%,23.173523%,67.253113%);stop-opacity:1;"/>
<stop offset="0.34375" style="stop-color:rgb(35.38208%,23.396301%,67.382812%);stop-opacity:1;"/>
<stop offset="0.351563" style="stop-color:rgb(35.609436%,23.61908%,67.510986%);stop-opacity:1;"/>
<stop offset="0.359375" style="stop-color:rgb(35.838318%,23.843384%,67.640686%);stop-opacity:1;"/>
<stop offset="0.367188" style="stop-color:rgb(36.065674%,24.066162%,67.770386%);stop-opacity:1;"/>
<stop offset="0.375" style="stop-color:rgb(36.294556%,24.28894%,67.89856%);stop-opacity:1;"/>
<stop offset="0.382812" style="stop-color:rgb(36.523438%,24.511719%,68.028259%);stop-opacity:1;"/>
<stop offset="0.390625" style="stop-color:rgb(36.750793%,24.734497%,68.156433%);stop-opacity:1;"/>
<stop offset="0.398437" style="stop-color:rgb(36.979675%,24.958801%,68.286133%);stop-opacity:1;"/>
<stop offset="0.40625" style="stop-color:rgb(37.207031%,25.18158%,68.415833%);stop-opacity:1;"/>
<stop offset="0.414063" style="stop-color:rgb(37.435913%,25.404358%,68.544006%);stop-opacity:1;"/>
<stop offset="0.421875" style="stop-color:rgb(37.663269%,25.627136%,68.673706%);stop-opacity:1;"/>
<stop offset="0.429688" style="stop-color:rgb(37.892151%,25.85144%,68.80188%);stop-opacity:1;"/>
<stop offset="0.4375" style="stop-color:rgb(38.121033%,26.074219%,68.93158%);stop-opacity:1;"/>
<stop offset="0.445312" style="stop-color:rgb(38.348389%,26.296997%,69.059753%);stop-opacity:1;"/>
<stop offset="0.453125" style="stop-color:rgb(38.577271%,26.519775%,69.189453%);stop-opacity:1;"/>
<stop offset="0.460937" style="stop-color:rgb(38.804626%,26.74408%,69.319153%);stop-opacity:1;"/>
<stop offset="0.46875" style="stop-color:rgb(39.033508%,26.966858%,69.447327%);stop-opacity:1;"/>
<stop offset="0.476563" style="stop-color:rgb(39.260864%,27.189636%,69.577026%);stop-opacity:1;"/>
<stop offset="0.484375" style="stop-color:rgb(39.489746%,27.412415%,69.7052%);stop-opacity:1;"/>
<stop offset="0.492188" style="stop-color:rgb(39.718628%,27.635193%,69.8349%);stop-opacity:1;"/>
<stop offset="0.5" style="stop-color:rgb(39.945984%,27.859497%,69.963074%);stop-opacity:1;"/>
<stop offset="0.507812" style="stop-color:rgb(40.174866%,28.082275%,70.092773%);stop-opacity:1;"/>
<stop offset="0.515625" style="stop-color:rgb(40.402222%,28.305054%,70.222473%);stop-opacity:1;"/>
<stop offset="0.523438" style="stop-color:rgb(40.631104%,28.527832%,70.350647%);stop-opacity:1;"/>
<stop offset="0.53125" style="stop-color:rgb(40.858459%,28.752136%,70.480347%);stop-opacity:1;"/>
<stop offset="0.539062" style="stop-color:rgb(41.087341%,28.974915%,70.608521%);stop-opacity:1;"/>
<stop offset="0.546875" style="stop-color:rgb(41.316223%,29.197693%,70.73822%);stop-opacity:1;"/>
<stop offset="0.554688" style="stop-color:rgb(41.543579%,29.420471%,70.86792%);stop-opacity:1;"/>
<stop offset="0.5625" style="stop-color:rgb(41.772461%,29.64325%,70.996094%);stop-opacity:1;"/>
<stop offset="0.570312" style="stop-color:rgb(41.999817%,29.867554%,71.125793%);stop-opacity:1;"/>
<stop offset="0.578125" style="stop-color:rgb(42.228699%,30.090332%,71.253967%);stop-opacity:1;"/>
<stop offset="0.585938" style="stop-color:rgb(42.456055%,30.31311%,71.383667%);stop-opacity:1;"/>
<stop offset="0.59375" style="stop-color:rgb(42.684937%,30.535889%,71.511841%);stop-opacity:1;"/>
<stop offset="0.601562" style="stop-color:rgb(42.913818%,30.760193%,71.641541%);stop-opacity:1;"/>
<stop offset="0.609375" style="stop-color:rgb(43.141174%,30.982971%,71.77124%);stop-opacity:1;"/>
<stop offset="0.617188" style="stop-color:rgb(43.370056%,31.20575%,71.899414%);stop-opacity:1;"/>
<stop offset="0.625" style="stop-color:rgb(43.597412%,31.428528%,72.029114%);stop-opacity:1;"/>
<stop offset="0.632812" style="stop-color:rgb(43.826294%,31.651306%,72.157288%);stop-opacity:1;"/>
<stop offset="0.640625" style="stop-color:rgb(44.05365%,31.87561%,72.286987%);stop-opacity:1;"/>
<stop offset="0.648438" style="stop-color:rgb(44.282532%,32.098389%,72.416687%);stop-opacity:1;"/>
<stop offset="0.65625" style="stop-color:rgb(44.511414%,32.321167%,72.544861%);stop-opacity:1;"/>
<stop offset="0.664062" style="stop-color:rgb(44.73877%,32.543945%,72.674561%);stop-opacity:1;"/>
<stop offset="0.671875" style="stop-color:rgb(44.967651%,32.76825%,72.802734%);stop-opacity:1;"/>
<stop offset="0.679688" style="stop-color:rgb(45.195007%,32.991028%,72.932434%);stop-opacity:1;"/>
<stop offset="0.6875" style="stop-color:rgb(45.423889%,33.213806%,73.060608%);stop-opacity:1;"/>
<stop offset="0.695312" style="stop-color:rgb(45.651245%,33.436584%,73.190308%);stop-opacity:1;"/>
<stop offset="0.703125" style="stop-color:rgb(45.880127%,33.660889%,73.320007%);stop-opacity:1;"/>
<stop offset="0.710938" style="stop-color:rgb(46.109009%,33.883667%,73.448181%);stop-opacity:1;"/>
<stop offset="0.71875" style="stop-color:rgb(46.336365%,34.106445%,73.577881%);stop-opacity:1;"/>
<stop offset="0.726562" style="stop-color:rgb(46.565247%,34.329224%,73.706055%);stop-opacity:1;"/>
<stop offset="0.734375" style="stop-color:rgb(46.792603%,34.552002%,73.835754%);stop-opacity:1;"/>
<stop offset="0.742188" style="stop-color:rgb(47.021484%,34.776306%,73.965454%);stop-opacity:1;"/>
<stop offset="0.75" style="stop-color:rgb(47.24884%,34.999084%,74.093628%);stop-opacity:1;"/>
<stop offset="0.757812" style="stop-color:rgb(47.477722%,35.221863%,74.223328%);stop-opacity:1;"/>
<stop offset="0.765625" style="stop-color:rgb(47.706604%,35.444641%,74.351501%);stop-opacity:1;"/>
<stop offset="0.773438" style="stop-color:rgb(47.93396%,35.668945%,74.481201%);stop-opacity:1;"/>
<stop offset="0.78125" style="stop-color:rgb(48.162842%,35.891724%,74.609375%);stop-opacity:1;"/>
<stop offset="0.789062" style="stop-color:rgb(48.390198%,36.114502%,74.739075%);stop-opacity:1;"/>
<stop offset="0.796875" style="stop-color:rgb(48.61908%,36.33728%,74.868774%);stop-opacity:1;"/>
<stop offset="0.804688" style="stop-color:rgb(48.846436%,36.560059%,74.996948%);stop-opacity:1;"/>
<stop offset="0.8125" style="stop-color:rgb(49.075317%,36.784363%,75.126648%);stop-opacity:1;"/>
<stop offset="0.820312" style="stop-color:rgb(49.304199%,37.007141%,75.254822%);stop-opacity:1;"/>
<stop offset="0.828125" style="stop-color:rgb(49.531555%,37.229919%,75.384521%);stop-opacity:1;"/>
<stop offset="0.835938" style="stop-color:rgb(49.760437%,37.452698%,75.514221%);stop-opacity:1;"/>
<stop offset="0.84375" style="stop-color:rgb(49.987793%,37.677002%,75.642395%);stop-opacity:1;"/>
<stop offset="0.851562" style="stop-color:rgb(50.216675%,37.89978%,75.772095%);stop-opacity:1;"/>
<stop offset="0.859375" style="stop-color:rgb(50.444031%,38.122559%,75.900269%);stop-opacity:1;"/>
<stop offset="0.867188" style="stop-color:rgb(50.672913%,38.345337%,76.029968%);stop-opacity:1;"/>
<stop offset="0.875" style="stop-color:rgb(50.901794%,38.569641%,76.158142%);stop-opacity:1;"/>
<stop offset="0.882812" style="stop-color:rgb(51.12915%,38.792419%,76.287842%);stop-opacity:1;"/>
<stop offset="0.890625" style="stop-color:rgb(51.358032%,39.015198%,76.417542%);stop-opacity:1;"/>
<stop offset="0.898438" style="stop-color:rgb(51.585388%,39.237976%,76.545715%);stop-opacity:1;"/>
<stop offset="0.90625" style="stop-color:rgb(51.81427%,39.460754%,76.675415%);stop-opacity:1;"/>
<stop offset="0.914062" style="stop-color:rgb(52.041626%,39.685059%,76.803589%);stop-opacity:1;"/>
<stop offset="0.921875" style="stop-color:rgb(52.270508%,39.907837%,76.933289%);stop-opacity:1;"/>
<stop offset="0.929688" style="stop-color:rgb(52.49939%,40.130615%,77.061462%);stop-opacity:1;"/>
<stop offset="0.9375" style="stop-color:rgb(52.726746%,40.353394%,77.191162%);stop-opacity:1;"/>
<stop offset="0.945312" style="stop-color:rgb(52.955627%,40.577698%,77.320862%);stop-opacity:1;"/>
<stop offset="0.953125" style="stop-color:rgb(53.182983%,40.800476%,77.449036%);stop-opacity:1;"/>
<stop offset="0.960938" style="stop-color:rgb(53.411865%,41.023254%,77.578735%);stop-opacity:1;"/>
<stop offset="0.96875" style="stop-color:rgb(53.639221%,41.246033%,77.706909%);stop-opacity:1;"/>
<stop offset="0.976562" style="stop-color:rgb(53.868103%,41.468811%,77.836609%);stop-opacity:1;"/>
<stop offset="0.984375" style="stop-color:rgb(54.096985%,41.693115%,77.966309%);stop-opacity:1;"/>
<stop offset="0.992188" style="stop-color:rgb(54.324341%,41.915894%,78.094482%);stop-opacity:1;"/>
<stop offset="1" style="stop-color:rgb(54.553223%,42.138672%,78.224182%);stop-opacity:1;"/>
</linearGradient>
<clipPath id="clip5">
  <path d="M 62 297 L 139 297 L 139 367 L 62 367 Z M 62 297 "/>
</clipPath>
<clipPath id="clip6">
  <path d="M 100.480469 374.992188 L 52.988281 309.375 L 100.988281 274.636719 L 148.476562 340.253906 Z M 100.480469 374.992188 "/>
</clipPath>
<clipPath id="clip7">
  <path d="M 100.480469 374.992188 L 52.988281 309.375 L 100.988281 274.636719 L 148.476562 340.253906 Z M 100.480469 374.992188 "/>
</clipPath>
<clipPath id="clip8">
  <path d="M 117.398438 362.5625 L 134.929688 344.160156 C 133.519531 346.496094 131.742188 348.960938 129.601562 351.554688 C 126.480469 355.3125 122.3125 359.644531 117.398438 362.5625 Z M 137.761719 338.300781 C 138.199219 337.074219 138.503906 335.855469 138.695312 334.675781 L 109.117188 365.746094 C 110.253906 365.558594 111.382812 365.285156 112.445312 364.925781 Z M 138.914062 331.566406 C 138.886719 330.773438 138.804688 329.96875 138.664062 329.207031 L 103.703125 365.898438 C 104.503906 366 105.316406 366.046875 106.113281 366.015625 Z M 138.054688 326.972656 C 137.835938 326.359375 137.539062 325.757812 137.242188 325.15625 L 99.40625 364.878906 C 100.082031 365.117188 100.710938 365.296875 101.371094 365.453125 Z M 136.183594 323.382812 C 135.867188 322.882812 135.472656 322.398438 135.078125 321.914062 L 95.710938 363.242188 C 96.296875 363.546875 96.828125 363.839844 97.421875 364.09375 Z M 133.761719 320.414062 C 133.359375 319.984375 132.921875 319.570312 132.46875 319.128906 L 92.460938 361.148438 C 92.957031 361.519531 93.480469 361.863281 93.984375 362.179688 Z M 130.9375 317.835938 C 130.839844 317.765625 130.796875 317.707031 130.703125 317.640625 C 130.28125 317.308594 129.851562 317.03125 129.421875 316.753906 L 89.507812 358.707031 C 89.964844 359.148438 90.429688 359.539062 90.871094 359.898438 Z M 127.527344 315.898438 C 126.875 315.691406 126.191406 315.503906 125.503906 315.371094 L 86.839844 355.964844 C 87.214844 356.417969 87.617188 356.851562 88.066406 357.34375 Z M 122.976562 315.15625 C 122.132812 315.132812 121.253906 315.179688 120.347656 315.246094 L 84.675781 352.722656 C 84.960938 353.242188 85.265625 353.792969 85.644531 354.378906 Z M 117.214844 315.652344 C 116.210938 315.835938 115.203125 316.019531 114.164062 316.226562 L 83.339844 348.609375 C 83.488281 349.316406 83.667969 350.003906 83.894531 350.699219 Z M 110.71875 316.953125 C 109.683594 317.15625 108.644531 317.363281 107.636719 317.546875 L 82.585938 343.847656 C 82.695312 344.628906 82.804688 345.410156 82.894531 346.164062 Z M 104.46875 318.027344 C 103.550781 318.144531 102.644531 318.214844 101.773438 318.210938 L 81.65625 339.347656 C 81.855469 340.0625 82.035156 340.75 82.210938 341.4375 Z M 99.066406 318.125 C 98.335938 318.066406 97.59375 317.921875 96.882812 317.757812 L 80.113281 335.382812 C 80.429688 336.015625 80.679688 336.605469 80.894531 337.222656 Z M 94.769531 317.109375 C 94.175781 316.855469 93.613281 316.582031 93.058594 316.257812 L 78.175781 331.886719 C 78.53125 332.445312 78.839844 332.992188 79.125 333.511719 Z M 91.449219 315.109375 C 90.984375 314.71875 90.550781 314.308594 90.125 313.84375 L 76 328.695312 L 77.101562 330.214844 Z M 88.851562 312.273438 C 88.503906 311.796875 88.167969 311.269531 87.839844 310.6875 L 73.589844 325.675781 C 73.984375 326.160156 74.410156 326.625 74.757812 327.101562 Z M 86.875 308.847656 C 86.753906 308.617188 86.652344 308.417969 86.5625 308.167969 C 86.386719 307.796875 86.238281 307.402344 86.03125 307.054688 L 70.988281 322.839844 C 71.414062 323.304688 71.820312 323.738281 72.222656 324.171875 Z M 85.035156 305.234375 C 84.699219 304.707031 84.363281 304.179688 83.996094 303.671875 L 68.378906 320.054688 C 68.785156 320.488281 69.1875 320.921875 69.617188 321.386719 Z M 82.742188 302.128906 C 82.316406 301.667969 81.882812 301.257812 81.445312 300.84375 L 66.019531 317.046875 L 67.097656 318.535156 Z M 79.847656 299.644531 C 79.324219 299.296875 78.769531 298.972656 78.207031 298.699219 L 64.050781 313.570312 C 64.328125 314.144531 64.605469 314.714844 64.933594 315.292969 Z M 76.191406 297.933594 C 75.488281 297.71875 74.765625 297.605469 74.066406 297.523438 L 62.753906 309.382812 C 62.851562 310.085938 63.03125 310.773438 63.25 311.519531 Z M 62.648438 306.648438 L 71.285156 297.585938 C 69.957031 297.773438 68.671875 298.203125 67.539062 298.84375 L 63.648438 302.929688 C 63.097656 304.054688 62.761719 305.296875 62.648438 306.648438 Z M 62.648438 306.648438 "/>
</clipPath>
<clipPath id="clip9">
  <path d="M 55.519531 227.121094 L 201.019531 227.121094 L 201.019531 366.621094 L 55.519531 366.621094 Z M 55.519531 227.121094 "/>
</clipPath>
</defs>
<g id="surface1">
<g clip-path="url(#clip1)" clip-rule="nonzero">
<g clip-path="url(#clip2)" clip-rule="nonzero">
<g clip-path="url(#clip3)" clip-rule="nonzero">
<g clip-path="url(#clip4)" clip-rule="nonzero">
<path style=" stroke:none;fill-rule:nonzero;fill:url(#linear0);" d="M 436.34375 127.890625 L 138.582031 -111.886719 L -100.894531 185.503906 L 196.867188 425.28125 Z M 436.34375 127.890625 "/>
</g>
</g>
</g>
</g>
<g clip-path="url(#clip5)" clip-rule="nonzero">
<g clip-path="url(#clip6)" clip-rule="nonzero">
<g clip-path="url(#clip7)" clip-rule="nonzero">
<g clip-path="url(#clip8)" clip-rule="nonzero">
<path style=" stroke:none;fill-rule:nonzero;fill:rgb(49.398804%,34.098816%,76.098633%);fill-opacity:1;" d="M 88.863281 402.269531 L 171.460938 342.492188 L 112.695312 261.296875 L 30.101562 321.078125 Z M 88.863281 402.269531 "/>
</g>
</g>
</g>
</g>
<g clip-path="url(#clip9)" clip-rule="nonzero">
<path style=" stroke:none;fill-rule:nonzero;fill:rgb(100%,100%,100%);fill-opacity:1;" d="M 75.890625 227.121094 L 71.367188 242.945312 L 55.519531 247.464844 L 71.367188 251.980469 L 75.890625 267.808594 L 80.414062 251.980469 L 96.261719 247.464844 L 80.414062 242.945312 Z M 154.460938 232.933594 L 138.183594 257.363281 L 131.179688 250.371094 L 113.539062 267.988281 C 112.605469 267.941406 111.765625 267.808594 110.8125 267.808594 C 85.53125 267.808594 64.636719 286.902344 61.726562 311.378906 C 61.703125 311.558594 61.660156 311.742188 61.660156 311.921875 C 61.453125 313.648438 61.339844 315.417969 61.339844 317.214844 C 61.339844 318.894531 61.433594 320.550781 61.613281 322.207031 C 61.636719 322.527344 61.703125 322.84375 61.75 323.183594 C 61.886719 324.457031 62.070312 325.75 62.339844 327 C 62.457031 327.636719 62.660156 328.269531 62.796875 328.90625 C 63.023438 329.769531 63.207031 330.675781 63.476562 331.539062 C 63.773438 332.515625 64.160156 333.46875 64.523438 334.445312 C 64.707031 334.921875 64.84375 335.421875 65.046875 335.898438 C 65.523438 337.058594 66.046875 338.171875 66.617188 339.28125 C 66.730469 339.53125 66.84375 339.78125 66.980469 340.007812 C 67.636719 341.28125 68.367188 342.507812 69.140625 343.710938 C 69.183594 343.777344 69.207031 343.847656 69.253906 343.914062 C 71.707031 347.683594 74.664062 351.089844 78.027344 354.085938 C 78.234375 354.269531 78.460938 354.472656 78.664062 354.675781 C 79.484375 355.359375 80.324219 356.015625 81.164062 356.652344 C 81.6875 357.0625 82.210938 357.445312 82.757812 357.832031 C 83.460938 358.332031 84.210938 358.761719 84.9375 359.242188 C 85.574219 359.625 86.210938 360.035156 86.847656 360.421875 C 87.578125 360.808594 88.328125 361.148438 89.078125 361.511719 C 89.828125 361.875 90.578125 362.28125 91.351562 362.625 C 91.964844 362.875 92.601562 363.078125 93.238281 363.328125 C 94.125 363.667969 95.011719 364.03125 95.917969 364.328125 C 96.625 364.554688 97.351562 364.691406 98.058594 364.894531 C 98.945312 365.121094 99.832031 365.394531 100.761719 365.597656 C 101.398438 365.710938 102.058594 365.78125 102.695312 365.894531 C 105.355469 366.324219 108.039062 366.621094 110.8125 366.621094 C 112.8125 366.621094 114.789062 366.460938 116.722656 366.234375 C 117.402344 366.144531 118.0625 366.027344 118.746094 365.914062 C 120.109375 365.6875 121.449219 365.417969 122.746094 365.097656 C 123.335938 364.960938 123.929688 364.804688 124.519531 364.644531 C 126.179688 364.167969 127.816406 363.601562 129.40625 362.964844 C 129.613281 362.875 129.839844 362.804688 130.019531 362.714844 C 131.792969 361.988281 133.476562 361.101562 135.136719 360.171875 C 135.613281 359.898438 136.070312 359.605469 136.546875 359.332031 C 137.660156 358.628906 138.773438 357.902344 139.84375 357.105469 C 140.410156 356.699219 140.980469 356.289062 141.523438 355.855469 C 142.773438 354.859375 144.003906 353.792969 145.164062 352.679688 C 145.320312 352.519531 145.503906 352.382812 145.664062 352.203125 C 147.050781 350.839844 148.34375 349.363281 149.550781 347.820312 C 149.730469 347.59375 149.914062 347.320312 150.09375 347.09375 C 151.253906 345.570312 152.347656 344.003906 153.300781 342.371094 C 153.324219 342.347656 153.324219 342.347656 153.347656 342.324219 C 157.710938 334.945312 160.28125 326.386719 160.28125 317.214844 C 160.28125 316.257812 160.144531 315.417969 160.097656 314.488281 L 177.742188 296.871094 L 170.738281 289.875 L 195.199219 273.621094 Z M 156.277344 251.1875 L 176.921875 271.804688 L 162.371094 281.519531 L 146.550781 265.71875 Z M 131.179688 266.808594 L 161.28125 296.871094 L 154.460938 303.679688 L 124.359375 273.621094 Z M 110.8125 279.433594 C 111.8125 279.433594 112.902344 279.566406 113.972656 279.683594 L 148.390625 314.058594 C 148.503906 315.125 148.640625 316.214844 148.640625 317.214844 C 148.640625 319.914062 148.34375 322.550781 147.820312 325.113281 C 147.183594 324.34375 146.570312 323.570312 145.890625 322.867188 C 140.636719 317.578125 133.339844 314.308594 125.359375 314.308594 L 102.082031 314.308594 C 97.261719 314.308594 92.964844 312.355469 89.804688 309.175781 C 89.804688 309.152344 89.78125 309.128906 89.757812 309.128906 C 86.574219 305.972656 84.621094 301.683594 84.621094 296.871094 C 84.621094 293.371094 85.667969 290.148438 87.460938 287.492188 C 93.898438 282.453125 101.96875 279.433594 110.8125 279.433594 Z M 75.164062 307.585938 C 76.664062 311.265625 78.777344 314.625 81.574219 317.371094 C 86.804688 322.664062 94.101562 325.933594 102.082031 325.933594 L 125.359375 325.933594 C 130.179688 325.933594 134.476562 327.882812 137.636719 331.0625 C 137.636719 331.085938 137.660156 331.109375 137.707031 331.109375 C 139.660156 333.039062 140.617188 335.671875 141.457031 338.285156 C 135.589844 346.867188 126.496094 353.15625 115.722656 354.632812 C 115.628906 354.652344 115.5625 354.675781 115.472656 354.699219 C 113.949219 354.882812 112.402344 354.996094 110.8125 354.996094 C 109.492188 354.996094 108.21875 354.925781 106.921875 354.8125 C 106.308594 354.746094 105.695312 354.609375 105.082031 354.519531 C 104.398438 354.425781 103.71875 354.335938 103.058594 354.199219 C 102.511719 354.085938 101.988281 353.925781 101.46875 353.792969 C 100.738281 353.609375 100.011719 353.449219 99.328125 353.222656 C 98.921875 353.085938 98.535156 352.929688 98.148438 352.792969 C 97.308594 352.496094 96.488281 352.203125 95.714844 351.859375 C 95.511719 351.769531 95.328125 351.679688 95.148438 351.589844 C 90.691406 349.546875 86.710938 346.683594 83.4375 343.140625 C 83.417969 343.121094 83.394531 343.097656 83.347656 343.074219 C 79.324219 338.851562 76.277344 333.71875 74.574219 328.019531 C 74.230469 326.886719 73.9375 325.726562 73.707031 324.546875 C 73.230469 322.1875 72.980469 319.734375 72.980469 317.214844 C 72.980469 313.761719 74.300781 310.765625 75.164062 307.585938 Z M 180.648438 325.933594 L 176.125 341.757812 L 160.28125 346.277344 L 176.125 350.792969 L 180.648438 366.621094 L 185.175781 350.792969 L 201.019531 346.277344 L 185.175781 341.757812 Z M 180.648438 325.933594 "/>
</g>
</g>
</svg>
